<svg width="20" height="20" viewBox="0 0 20 20" fill="none" xmlns="http://www.w3.org/2000/svg">
<path d="M10.0101 2.31779C11.0315 2.31779 12.0429 2.51897 12.9865 2.90984C13.9302 3.30071 14.7876 3.87362 15.5098 4.59585C16.232 5.31808 16.8049 6.1755 17.1958 7.11914C17.5867 8.06278 17.7879 9.07418 17.7879 10.0956C17.7879 11.117 17.5867 12.1284 17.1958 13.072C16.8049 14.0156 16.232 14.8731 15.5098 15.5953C14.7876 16.3175 13.9302 16.8904 12.9865 17.2813C12.0429 17.6722 11.0315 17.8733 10.0101 17.8733C7.94729 17.8733 5.96898 17.0539 4.51037 15.5953C3.05175 14.1367 2.23231 12.1584 2.23231 10.0956C2.23231 8.03277 3.05175 6.05446 4.51037 4.59585C5.96898 3.13723 7.94729 2.31779 10.0101 2.31779ZM10.0101 0.651123C8.76979 0.651067 7.54162 0.895313 6.39572 1.36992C5.24982 1.84452 4.20862 2.54018 3.33158 3.41719C2.45453 4.29419 1.75882 5.33536 1.28417 6.48124C0.809515 7.62712 0.565212 8.85527 0.565212 10.0956C0.565212 11.3359 0.809515 12.564 1.28417 13.7099C1.75882 14.8558 2.45453 15.8969 3.33158 16.774C4.20862 17.651 5.24982 18.3466 6.39572 18.8212C7.54162 19.2958 8.76979 19.5401 10.0101 19.54C12.5148 19.5399 14.917 18.5448 16.688 16.7736C18.4591 15.0025 19.4541 12.6003 19.4541 10.0956C19.4541 7.59082 18.4591 5.18865 16.688 3.41749C14.917 1.64632 12.5148 0.651237 10.0101 0.651123ZM14.2956 7.39668C14.2956 7.03893 14.1535 6.69584 13.9006 6.44287C13.6476 6.1899 13.3045 6.04779 12.9468 6.04779C12.589 6.04779 12.2459 6.1899 11.9929 6.44287C11.74 6.69584 11.5979 7.03893 11.5979 7.39668C11.5979 7.75443 11.74 8.09752 11.9929 8.35049C12.2459 8.60345 12.589 8.74557 12.9468 8.74557C13.3045 8.74557 13.6476 8.60345 13.9006 8.35049C14.1535 8.09752 14.2956 7.75443 14.2956 7.39668ZM8.42342 7.39668C8.42342 7.03878 8.28125 6.69555 8.02818 6.44248C7.77511 6.18941 7.43187 6.04723 7.07397 6.04723C6.71608 6.04723 6.37284 6.18941 6.11977 6.44248C5.8667 6.69555 5.72453 7.03878 5.72453 7.39668C5.72453 7.75457 5.8667 8.09781 6.11977 8.35088C6.37284 8.60395 6.71608 8.74612 7.07397 8.74612C7.43187 8.74612 7.77511 8.60395 8.02818 8.35088C8.28125 8.09781 8.42342 7.75457 8.42342 7.39668ZM14.6168 10.6511H5.33453C5.33453 12.7767 7.28898 15.3289 10.029 15.3289C12.7679 15.3289 14.6168 12.7767 14.6168 10.6511Z" fill="white"/>
</svg>
