<svg xmlns="http://www.w3.org/2000/svg" viewBox="0 0 32 32" class="design-iconfont">
  <g fill="#006EFF" fill-rule="evenodd">
    <path d="M26.117815,3 C28.2600104,3 30.0088939,4.68396847 30.1129197,6.80035966 L30.117815,7 L30.117815,25 C30.117815,27.1421954 28.4338466,28.8910789 26.3174554,28.9951047 L26.117815,29 L16.2531834,29 C15.8665841,29 15.5531834,28.6865993 15.5531834,28.3 C15.5531834,28.1023931 15.6367047,27.9139916 15.7831319,27.7812982 L18.5664908,25.2589974 C18.7504231,25.0923166 18.9897722,25 19.237993,25 L25.117815,25 L25.117815,25 C25.6700998,25 26.117815,24.5522847 26.117815,24 L26.117815,8 C26.117815,7.44771525 25.6700998,7 25.117815,7 L19.209993,7 C18.9617722,7 18.7224231,6.90768338 18.5384908,6.74100261 L15.7551319,4.21870183 C15.4686608,3.95909955 15.4468793,3.51641961 15.7064816,3.2299485 C15.839175,3.08352129 16.0275766,3 16.2251834,3 L26.117815,3 L26.117815,3 Z" fill="#FFF" fill-rule="nonzero"/>
    <path d="M11.0721562,5.15966144 L19.859109,12.8956463 L19.859109,12.8956463 C21.517215,14.3554338 21.677984,16.8829859 20.2181966,18.5410919 L20.0611664,18.7094303 L19.894712,18.8684561 L11.0820268,26.8155761 C10.6718804,27.1854387 10.0395581,27.1527822 9.66969551,26.7426358 L8.33030449,25.2573642 C7.96044187,24.8472178 7.99309835,24.2148955 8.40324477,23.8450329 L17.21593,15.8979129 L17.21593,15.8979129 L8.42897715,8.16192805 C8.01445064,7.79698119 7.97425839,7.16509317 8.33920525,6.75056665 L9.66079475,5.24943335 C10.0257416,4.83490683 10.6576296,4.79471458 11.0721562,5.15966144 Z" fill="#FFF" fill-rule="nonzero"/>
    <rect x="2" y="14" width="17" height="4" rx="1" fill="#FFF"/>
  </g>
</svg>
