<svg xmlns="http://www.w3.org/2000/svg" viewBox="0 0 32 32" class="design-iconfont">
  <g fill="none" fill-rule="evenodd">
    <g fill-rule="nonzero">
      <path d="M9,11.25 L9,7.75 C9,7.336 8.553,7 8,7 C7.447,7 7,7.336 7,7.75 L7,11.25 C7,11.66475 7.447,12 8,12 C8.553,12 9,11.66475 9,11.25 Z" fill="#CFD4E6" transform="translate(8 15)"/>
      <path d="M16,0.0214241394 L16,1.40988329 C16,4.4972195 12.418278,8 8,8 C3.581722,8 0,4.4972195 0,1.40988329 L0,0" stroke="#CFD4E6" stroke-width="2" stroke-linecap="round" transform="translate(8 15)"/>
      <path d="M8,1 C9.10796025,1 10.1203571,1.41882648 10.8527552,2.10615391 C11.5563763,2.76647524 12,3.67708685 12,4.69230769 L12,4.69230769 L12,11.3076923 C12,12.3229132 11.5563763,13.2335248 10.8527552,13.8938461 C10.1203571,14.5811735 9.10796025,15 8,15 C6.89203975,15 5.8796429,14.5811735 5.14724481,13.8938461 C4.44362372,13.2335248 4,12.3229132 4,11.3076923 L4,11.3076923 L4,4.69230769 C4,3.67708685 4.44362372,2.76647524 5.14724481,2.10615391 C5.8796429,1.41882648 6.89203975,1 8,1 Z" stroke="#CFD4E6" stroke-width="2" transform="translate(8 4)"/>
    </g>
    <path d="M8,7 C8.55228475,7 9,7.44771525 9,8 L9,12 C9,12.5522847 8.55228475,13 8,13 C7.44771525,13 7,12.5522847 7,12 L7,8 C7,7.44771525 7.44771525,7 8,7 Z M5,8 C5.55228475,8 6,8.44771525 6,9 L6,11 C6,11.5522847 5.55228475,12 5,12 C4.44771525,12 4,11.5522847 4,11 L4,9 C4,8.44771525 4.44771525,8 5,8 Z" fill="#CFD4E6" transform="matrix(-1 0 0 1 13 0)"/>
    <path d="M27,7 C27.5522847,7 28,7.44771525 28,8 L28,12 C28,12.5522847 27.5522847,13 27,13 C26.4477153,13 26,12.5522847 26,12 L26,8 C26,7.44771525 26.4477153,7 27,7 Z M24,8 C24.5522847,8 25,8.44771525 25,9 L25,11 C25,11.5522847 24.5522847,12 24,12 C23.4477153,12 23,11.5522847 23,11 L23,9 C23,8.44771525 23.4477153,8 24,8 Z" fill="#CFD4E6"/>
  </g>
</svg>
