<svg xmlns="http://www.w3.org/2000/svg" viewBox="0 0 20 20" class="design-iconfont">
  <path d="M3,3 L7.85714286,3 C8.40942761,3 8.85714286,3.44771525 8.85714286,4 L8.85714286,5.5 C8.85714286,6.05228475 8.40942761,6.5 7.85714286,6.5 L3,6.5 C2.44771525,6.5 2,6.05228475 2,5.5 L2,4 C2,3.44771525 2.44771525,3 3,3 Z M12.1428571,3 L17,3 C17.5522847,3 18,3.44771525 18,4 L18,10.75 C18,11.3022847 17.5522847,11.75 17,11.75 L12.1428571,11.75 C11.5905724,11.75 11.1428571,11.3022847 11.1428571,10.75 L11.1428571,4 C11.1428571,3.44771525 11.5905724,3 12.1428571,3 Z M12.1428571,13.5 L17,13.5 C17.5522847,13.5 18,13.9477153 18,14.5 L18,16 C18,16.5522847 17.5522847,17 17,17 L12.1428571,17 C11.5905724,17 11.1428571,16.5522847 11.1428571,16 L11.1428571,14.5 C11.1428571,13.9477153 11.5905724,13.5 12.1428571,13.5 Z M3,8.25 L7.85714286,8.25 C8.40942761,8.25 8.85714286,8.69771525 8.85714286,9.25 L8.85714286,16 C8.85714286,16.5522847 8.40942761,17 7.85714286,17 L3,17 C2.44771525,17 2,16.5522847 2,16 L2,9.25 C2,8.69771525 2.44771525,8.25 3,8.25 Z" fill="#CFD4E6" fill-rule="evenodd"/>
</svg>
