<svg width="32" height="32" viewBox="0 0 32 32" fill="none" xmlns="http://www.w3.org/2000/svg">
<path fill-rule="evenodd" clip-rule="evenodd" d="M16 6.5C15.1448 6.5 14.3775 6.82301 13.8316 7.33534C13.3095 7.82532 13 8.47948 13 9.19231V15.7708L11.3208 17.4643C11.1149 16.953 11 16.3953 11 15.8077V9.19231C11 7.87469 11.5778 6.70764 12.4629 5.87697C13.3818 5.01465 14.6393 4.5 16 4.5C17.3607 4.5 18.6182 5.01465 19.5371 5.87697C20.1187 6.42276 20.5675 7.11378 20.807 7.8973L19 9.71973V9.19231C19 8.47948 18.6905 7.82532 18.1684 7.33534C17.6225 6.82301 16.8552 6.5 16 6.5ZM15.9251 18.4992C15.95 18.4997 15.9749 18.5 16 18.5C16.8552 18.5 17.6225 18.177 18.1684 17.6647C18.6905 17.1747 19 16.5205 19 15.8077V15.3981L21 13.381V15.8077C21 17.1253 20.4222 18.2924 19.5371 19.123C18.6182 19.9854 17.3607 20.5 16 20.5C15.3846 20.5 14.7903 20.3947 14.2389 20.1997L15.9251 18.4992ZM9.69947 19.0994C9.23953 18.3578 9 17.5958 9 16.9099V15.5C9 14.9477 8.55228 14.5 8 14.5C7.44772 14.5 7 14.9477 7 15.5V16.9099C7 18.1772 7.47785 19.4381 8.26253 20.5486L9.69947 19.0994ZM11.2422 23.2219L12.7135 21.7381C13.6977 22.214 14.8168 22.5 16 22.5C17.9447 22.5 19.7162 21.7275 20.9999 20.6088C22.3016 19.4744 23 18.0811 23 16.9099V15.5214C23 14.9691 23.4477 14.5214 24 14.5214C24.5523 14.5214 25 14.9691 25 15.5214V16.9099C25 18.826 23.9076 20.7277 22.3138 22.1166C20.9225 23.3291 19.0715 24.2243 17 24.4465V26.75C17 27.1647 16.553 27.5 16 27.5C15.447 27.5 15 27.1647 15 26.75V24.4465C13.6274 24.2993 12.3516 23.8566 11.2422 23.2219Z" fill="#666666"/>
<path d="M7 24.5L23.8985 7.45766" stroke="#FF2E2E" stroke-width="2" stroke-linecap="round"/>
</svg>
