<svg width="24" height="24" viewBox="0 0 24 24" fill="none" xmlns="http://www.w3.org/2000/svg">
<path d="M18 10.5161C18.3846 10.5161 18.7016 10.8056 18.745 11.1786L18.75 11.2661V12.3074C18.75 14.9986 15.9831 17.6014 12.7506 17.9585L12.75 19.6875C12.75 19.9986 12.4148 20.25 12 20.25C11.6172 20.25 11.302 20.0358 11.2558 19.7581L11.25 19.6875L11.2502 17.9585C10.2755 17.851 9.34312 17.5393 8.51615 17.0825L9.48145 15.8958C10.243 16.2723 11.1077 16.5 12 16.5C14.6953 16.5 17.139 14.4226 17.2463 12.4423L17.25 12.3074V11.2661C17.25 10.8519 17.5858 10.5161 18 10.5161ZM15.75 8.18925V11.4808C15.75 13.4362 14.0559 15 12 15C11.4537 15 10.933 14.8896 10.4628 14.6908L15.75 8.18925ZM6 10.5C6.38463 10.5 6.70163 10.7895 6.74495 11.1625L6.75 11.25V12.3074C6.75 12.5121 6.77562 12.7184 6.82453 12.9238L5.73409 14.278C5.44814 13.6993 5.27849 13.0873 5.25328 12.4683L5.25 12.3074V11.25C5.25 10.8358 5.58579 10.5 6 10.5ZM12 3C12.8407 3 13.6209 3.26147 14.2494 3.70428L8.25 11.1532V6.51923C8.25 4.56378 9.9441 3 12 3Z" fill="#ADB6CC"/>
<path d="M6.375 16.5001L16.3796 4.1123" stroke="#ADB6CC" stroke-width="1.5" stroke-linecap="round"/>
</svg>
