<svg width="18" height="18" viewBox="0 0 18 18" fill="none" xmlns="http://www.w3.org/2000/svg">
<path d="M7.91683 15.5C3.69183 15.5 0.333496 12.1417 0.333496 7.91671C0.333496 3.69171 3.69183 0.333374 7.91683 0.333374C12.1418 0.333374 15.5002 3.69171 15.5002 7.91671C15.5002 12.1417 12.1418 15.5 7.91683 15.5ZM7.91683 13.3334C10.9502 13.3334 13.3335 10.95 13.3335 7.91671C13.3335 4.88337 10.9502 2.50004 7.91683 2.50004C4.8835 2.50004 2.50016 4.88337 2.50016 7.91671C2.50016 10.95 4.8835 13.3334 7.91683 13.3334ZM14.3085 13.3334L17.3418 16.3667L15.8252 17.8834L12.7918 14.85L14.3085 13.3334Z" fill="#676C80"/>
</svg>
