<svg width="32" height="32" viewBox="0 0 32 32" fill="none" xmlns="http://www.w3.org/2000/svg">
<path fill-rule="evenodd" clip-rule="evenodd" d="M21.9396 7.26987C21.4908 7.09569 21.0029 7 20.493 7H6.49295C5.38866 7 4.38729 7.44881 3.66452 8.17157C2.94176 8.89434 2.49295 9.89571 2.49295 11V21C2.49295 22.1043 2.94176 23.1057 3.66452 23.8284C3.89671 24.0606 4.15766 24.2645 4.44153 24.4344L5.97313 22.932C5.63003 22.84 5.32355 22.659 5.07874 22.4142C4.71571 22.0512 4.49295 21.5526 4.49295 21V11C4.49295 10.4474 4.71571 9.94881 5.07874 9.58579C5.44176 9.22276 5.94039 9 6.49295 9H20.1758L21.9396 7.26987ZM11.6132 23H20.493C21.0455 23 21.5441 22.7772 21.9072 22.4142C22.2702 22.0512 22.493 21.5526 22.493 21V19.489V18.8608V13.1282V12.511V12.3276L24.4494 10.4084C24.4781 10.6015 24.493 10.799 24.493 11V11.5079L27.9432 9.77734L29.3763 9.05853L29.3915 10.6617L29.4918 21.2597L29.507 22.8682L28.0578 22.17L24.493 20.4525V21C24.493 22.1043 24.0441 23.1057 23.3214 23.8284C22.5986 24.5512 21.5972 25 20.493 25H9.57433L11.6132 23ZM24.493 18.2325L27.4767 19.67L27.4067 12.2839L24.493 13.7453V18.2325ZM7.99295 14C8.82138 14 9.49295 13.3284 9.49295 12.5C9.49295 11.6716 8.82138 11 7.99295 11C7.16452 11 6.49295 11.6716 6.49295 12.5C6.49295 13.3284 7.16452 14 7.99295 14Z" fill="#666666"/>
<path d="M6.99295 25L23.9635 8.02944" stroke="#FF2E2E" stroke-width="2" stroke-linecap="round"/>
</svg>
