<svg xmlns="http://www.w3.org/2000/svg" viewBox="0 0 32 32" class="design-iconfont">
  <g fill="#ADB6CC" fill-rule="nonzero">
    <path d="M23.2727273,6.18181818 L8.72727273,6.18181818 C6.2168875,6.18181818 4.18181818,8.2168875 4.18181818,10.7272727 L4.18181818,21.2727273 C4.18181818,23.7831125 6.2168875,25.8181818 8.72727273,25.8181818 L23.2727273,25.8181818 C25.7831125,25.8181818 27.8181818,23.7831125 27.8181818,21.2727273 L27.8181818,10.7272727 C27.8181818,8.2168875 25.7831125,6.18181818 23.2727273,6.18181818 Z M23.2727273,8 C24.7789584,8 26,9.22104159 26,10.7272727 L26,21.2727273 C26,22.7789584 24.7789584,24 23.2727273,24 L8.72727273,24 C7.22104159,24 6,22.7789584 6,21.2727273 L6,10.7272727 C6,9.22104159 7.22104159,8 8.72727273,8 L23.2727273,8 Z"/>
    <path d="M21.5,14.1818182 L16.5,14.1818182 C15.2197035,14.1818182 14.1818182,15.2197035 14.1818182,16.5 L14.1818182,19.5 C14.1818182,20.7802965 15.2197035,21.8181818 16.5,21.8181818 L21.5,21.8181818 C22.7802965,21.8181818 23.8181818,20.7802965 23.8181818,19.5 L23.8181818,16.5 C23.8181818,15.2197035 22.7802965,14.1818182 21.5,14.1818182 Z M21.5,16 C21.7761424,16 22,16.2238576 22,16.5 L22,19.5 C22,19.7761424 21.7761424,20 21.5,20 L16.5,20 C16.2238576,20 16,19.7761424 16,19.5 L16,16.5 C16,16.2238576 16.2238576,16 16.5,16 L21.5,16 Z"/>
  </g>
</svg>
