<svg xmlns="http://www.w3.org/2000/svg" viewBox="0 0 24 24" class="design-iconfont">
  <g stroke="#ADB6CC" stroke-width="2" fill="none" fill-rule="evenodd" stroke-linecap="round">
    <path d="M5 17.5L15 17.5" transform="translate(2 3)"/>
    <path d="M20,2 L20,12 C20,13.1045695 19.1045695,14 18,14 L2,14 C0.8954305,14 1.3527075e-16,13.1045695 0,12 L0,4 L0,4 L0,2 C-1.3527075e-16,0.8954305 0.8954305,2.02906125e-16 2,0 L18,0 C19.1045695,-2.02906125e-16 20,0.8954305 20,2 Z" transform="translate(2 3)"/>
    <g>
      <path d="M0 0L4 4" transform="translate(10 8)"/>
      <path transform="matrix(-1 0 0 1 14 8)" d="M0 0L4 4"/>
    </g>
  </g>
</svg>
