<svg xmlns="http://www.w3.org/2000/svg" xmlns:xlink="http://www.w3.org/1999/xlink" viewBox="0 0 32 32" class="design-iconfont">
  <defs>
    <path id="t3ru7xlifa" d="M0 0L20 0 20 24 0 24z"/>
  </defs>
  <g transform="translate(7.5 4)" fill="none" fill-rule="evenodd">
    <mask id="5ue0x9043b" fill="#fff">
      <use xlink:href="#t3ru7xlifa"/>
    </mask>
    <path d="M2.0462767,6.22817971 C2.0462767,6.10483933 2.09492364,5.98965368 2.18290215,5.90300961 C2.27191571,5.81636554 2.38887538,5.76845646 2.51411538,5.76845646 C2.76977058,5.76845646 2.97884893,5.97334421 2.98091901,6.22614103 L2.99230447,11.0343773 C2.99230447,11.3034836 3.09891372,11.5572998 3.29143141,11.7448587 C3.48498414,11.9354757 3.74167439,12.0404679 4.01389025,12.0404679 L4.01699538,12.0404679 C4.58005786,12.0394485 5.03858117,11.5868607 5.03858117,11.0313193 L5.02305555,3.04171657 C5.02305555,2.91837619 5.07170249,2.8021712 5.15864596,2.71552713 C5.24765951,2.62888306 5.36461918,2.58097398 5.52194546,2.58097398 C5.77863571,2.58097398 5.9887491,2.78688107 5.98978414,3.03967789 L6.00427472,10.2158457 C6.00530976,10.4839326 6.11295406,10.7357101 6.3044367,10.9253077 C6.50005951,11.116944 6.7526096,11.2637293 7.03000067,11.2198976 C7.59409819,11.2188782 8.0526215,10.7662904 8.05055142,10.210749 L8.0350258,2.47496241 C8.0350258,2.35264137 8.08367274,2.23643638 8.17165125,2.14979231 C8.32690745,1.99689101 8.66640101,1.94796259 8.87237423,2.14979231 C8.96035274,2.23643638 9.01003473,2.35264137 9.01003473,2.47496241 L9.01003473,10.2056523 C9.01003473,10.7611936 9.46855803,11.2137815 10.0326556,11.2137815 C10.5967531,11.2137815 11.0552764,10.7611936 11.0552764,10.2056523 L11.0552764,3.86330624 C11.0552764,3.73996585 11.1039233,3.6247802 11.1919018,3.53813613 C11.2809154,3.45047272 11.3978751,3.40358299 11.5489911,3.40358299 C11.8056813,3.40358299 12.0147597,3.60949007 12.0147597,3.86330624 L12.0147597,14.2014729 C12.0354605,14.6846411 12.3304473,15.0516042 12.7827604,15.1586351 C13.2381785,15.268724 13.701877,15.0770877 13.9109554,14.7101246 L16.7169524,10.1822074 C16.8939445,9.89577228 17.2593141,9.78772203 17.5677564,9.92839122 C17.7468185,10.0109579 17.8710235,10.1526465 17.9269157,10.3391861 C17.9817729,10.5216483 17.9547569,10.7122652 17.8523928,10.8743406 L17.6184734,11.2413037 C16.4209306,13.116893 15.4490268,15.2228536 14.7307081,17.5000637 C14.328077,18.7722025 13.5062542,19.9148849 12.4173908,20.7181264 C11.2912658,21.5468515 9.94985225,21.9861879 8.53909092,21.9861879 C6.80953687,21.9861879 5.18038183,21.3215769 3.95282282,20.1126373 C2.72733389,18.904717 2.05559207,17.3002727 2.05662711,15.5928748 L2.05973223,13.2962972 L2.0462767,6.22817971 Z M19.8893541,9.76937387 C19.6699253,9.03340893 19.1399842,8.42588109 18.4320159,8.10173033 C17.1785809,7.52580209 15.6912265,7.96921587 14.9687676,9.13330445 L14.0600013,10.5991183 L14.0600013,3.86330624 C14.0600013,2.49840728 12.9338764,1.38732448 11.521045,1.38732448 C11.2891957,1.38732448 11.0625217,1.41790474 10.8430929,1.47906526 C10.7178529,1.19874621 10.5408608,0.941872022 10.318327,0.724752172 C9.84324299,0.256874188 9.21290283,0 8.50182944,0 C7.83008762,0 7.19871241,0.25789353 6.72466348,0.726790857 C6.6925772,0.757371117 6.662561,0.788970719 6.63357985,0.820570322 C5.72688365,0.380214571 4.47965885,0.534135216 3.70958811,1.29252567 C3.23553918,1.76040366 2.97470877,2.38322163 2.97677885,3.04579394 L2.97781389,3.79501032 C2.1715167,3.64720573 1.32174777,3.90102189 0.735914381,4.47898881 C0.260830414,4.94584746 0,5.56866543 0,6.23021839 L0.0134555372,13.2962972 L0.0103504132,15.5908361 C0.00828033059,17.8364466 0.894275704,19.9485232 2.50894017,21.5397161 C4.11946447,23.1268316 6.26096497,24.0004077 8.53909092,24.0004077 C10.39492,24.0004077 12.1596655,23.4234602 13.6428797,22.3317449 C15.0753769,21.2767259 16.15596,19.7731964 16.6848661,18.0994368 C17.3493627,15.9904182 18.2467435,14.0444943 19.3500976,12.3146709 L19.5840169,11.9466884 C19.9990685,11.2983869 20.1098179,10.5033001 19.8893541,9.76937387 L19.8893541,9.76937387 Z" fill="#ADB6CC" mask="url(#5ue0x9043b)"/>
  </g>
</svg>
