<svg xmlns="http://www.w3.org/2000/svg" viewBox="0 0 32 32" class="design-iconfont">
  <g fill="none" fill-rule="evenodd">
    <path d="M22.9951047,10.8003597 L23,11 L23,12.008 L27.5516637,9.72644275 C28.0453317,9.47883346 28.6462557,9.67830344 28.893865,10.1719714 C28.9636572,10.3111188 29,10.4646384 29,10.6203077 L29,21.3796537 C29,21.9319385 28.5522847,22.3796537 28,22.3796537 C27.8443307,22.3796537 27.6908111,22.3433109 27.5516637,22.2735187 L23,19.99 L23,21 C23,23.1421954 21.3160315,24.8910789 19.1996403,24.9951047 L19,25 L9.291,24.9996099 L22.3009974,8.74025524 C22.7067726,9.33186792 22.957636,10.0380637 22.9951047,10.8003597 Z M17.211,6.9996099 L3.9455129,23.5827869 C3.39577303,22.9333008 3.04945182,22.1061366 3.00489531,21.1996403 L3,21 L3,11 C3,8.85780461 4.68396847,7.10892112 6.80035966,7.00489531 L7,7 L17.211,6.9996099 Z M7.5,11 C6.67157288,11 6,11.6715729 6,12.5 C6,13.3284271 6.67157288,14 7.5,14 C8.32842712,14 9,13.3284271 9,12.5 C9,11.6715729 8.32842712,11 7.5,11 Z" fill="#D2D7E6" fill-rule="nonzero"/>
    <path stroke="#EC1313" stroke-width="2" stroke-linecap="round" d="M6.1768737 25L20.7975111 6.76203354"/>
  </g>
</svg>
