<svg xmlns="http://www.w3.org/2000/svg" viewBox="0 0 10 8" class="design-iconfont">
  <path d="M12.561405,7.23210817 L7.09771027,13.7434859 L7.05583326,13.7894471 L7.05583326,13.7894471 L6.98532402,13.8522843 L6.87382493,13.924473 L6.87382493,13.924473 L6.78377776,13.9647344 L6.78377776,13.9647344 L6.68908887,13.9928345 L6.68908887,13.9928345 L6.62331284,14.0047336 L6.62331284,14.0047336 L6.52672917,14.0116227 L6.52672917,14.0116227 L6.42267758,14.0051326 L6.42267758,14.0051326 L6.38468905,13.9986334 L6.38468905,13.9986334 L6.30303714,13.979228 L6.30303714,13.979228 L6.17018619,13.9245092 L6.17018619,13.9245092 L6.11743774,13.8922648 C6.09120873,13.8771232 6.06651545,13.8591088 6.0428092,13.8394369 L6.04108623,13.8359286 C6.00655323,13.8090296 5.9753879,13.7779806 5.94663457,13.7437137 L3.37548413,10.6795359 C3.10923278,10.3622299 3.15062076,9.88916323 3.46792675,9.62291188 C3.78523275,9.35666054 4.25829945,9.39804851 4.52455079,9.71535451 L6.52221029,12.0950196 L11.4123383,6.26792675 C11.6785896,5.95062076 12.1516563,5.90923278 12.4689623,6.17548413 C12.7862683,6.44173548 12.8276563,6.91480217 12.561405,7.23210817 Z" transform="translate(-3 -6)" fill="#FFF" fill-rule="evenodd"/>
</svg>
