<svg xmlns="http://www.w3.org/2000/svg" viewBox="0 0 32 32" class="design-iconfont">
  <g fill="none" fill-rule="evenodd">
    <path d="M16,4 C22.627417,4 28,9.372583 28,16 C28,22.627417 22.627417,28 16,28 C9.372583,28 4,22.627417 4,16 C4,9.372583 9.372583,4 16,4 Z M10,14.5 C9.17157288,14.5 8.5,15.1715729 8.5,16 C8.5,16.8284271 9.17157288,17.5 10,17.5 C10.8284271,17.5 11.5,16.8284271 11.5,16 C11.5,15.1715729 10.8284271,14.5 10,14.5 Z M16,14.5 C15.1715729,14.5 14.5,15.1715729 14.5,16 C14.5,16.8284271 15.1715729,17.5 16,17.5 C16.8284271,17.5 17.5,16.8284271 17.5,16 C17.5,15.1715729 16.8284271,14.5 16,14.5 Z M22,14.5 C21.1715729,14.5 20.5,15.1715729 20.5,16 C20.5,16.8284271 21.1715729,17.5 22,17.5 C22.8284271,17.5 23.5,16.8284271 23.5,16 C23.5,15.1715729 22.8284271,14.5 22,14.5 Z" fill="#D2D7E6" fill-rule="nonzero"/>
  </g>
</svg>
