<?xml version="1.0" encoding="UTF-8"?>
<svg width="20px" height="20px" viewBox="0 0 20 20" version="1.1" xmlns="http://www.w3.org/2000/svg" xmlns:xlink="http://www.w3.org/1999/xlink">
    <title>音量</title>
    <g id="页面-1" stroke="none" stroke-width="1" fill="none" fill-rule="evenodd">
        <g id="麦克风" transform="translate(-44.000000, -777.000000)">
            <g id="下拉备份-2" transform="translate(24.000000, 591.000000)">
                <g id="编组-5" transform="translate(20.000000, 156.000000)">
                    <g id="音量" transform="translate(0.000000, 30.000000)">
                        <rect id="矩形" x="0" y="0" width="20.004423" height="20"></rect>
                        <path d="M11,2.77558542 L11,17.2244152 L10.9924979,17.3347177 C10.9086019,17.9414244 10.1403547,18.2282832 9.66575681,17.7846453 L5.38631579,13.7835296 L1.78947368,13.7842176 C1.35345941,13.7842176 1,13.4376661 1,13.0101732 L1,6.98982744 L1.00720696,6.88479419 C1.0594832,6.50698251 1.38979393,6.21578299 1.78947368,6.21578299 L5.39578947,6.21543897 L9.66515863,2.21591506 C10.167458,1.74539711 11,2.09446412 11,2.77558542 Z M9,14.424 L9,5.579 L6.18633094,8.21536356 L3,8.215 L3,11.784 L6.17548581,11.7833786 L9,14.424 Z" id="形状结合" fill="#1883FF" fill-rule="nonzero"></path>
                        <path d="M13.3597592,4.53281824 C13.6177765,4.04450944 14.2227934,3.85782134 14.7111022,4.1158387 C16.7135438,5.17390831 18,7.43498735 18,9.9402833 C18,12.5757613 16.5760096,14.9335085 14.4117199,15.9113104 C13.908417,16.1386971 13.3160762,15.9150228 13.0886896,15.4117199 C12.8613029,14.908417 13.0849772,14.3160762 13.5882801,14.0886896 C15.0140327,13.4445504 16,11.8120523 16,9.9402833 C16,8.15793781 15.1059093,6.5864814 13.7767387,5.8841613 C13.2884299,5.62614394 13.1017418,5.02112704 13.3597592,4.53281824 Z" id="路径" fill="#1883FF" fill-rule="nonzero"></path>
                    </g>
                </g>
            </g>
        </g>
    </g>
</svg>