<svg width="24" height="24" viewBox="0 0 24 24" fill="none" xmlns="http://www.w3.org/2000/svg">
  <path
    fill-rule="evenodd"
    clip-rule="evenodd"
    d="M12.0498 3.5168C12.0498 3.06569 12.4155 2.7 12.8666 2.7C13.3177 2.7 13.6834 3.06569 13.6834 3.51679V4.62799H13.6838V11.8515H15.3838V4.60044C15.3984 4.16209 15.7583 3.8112 16.2002 3.8112C16.6513 3.8112 17.017 4.17689 17.017 4.62799V7.40685H17.0165V12.9628H18.7165V7.96158H18.717C18.717 7.51048 19.0827 7.14479 19.5338 7.14479C19.9849 7.14479 20.3506 7.51048 20.3506 7.96158V12.94L19.9406 20.8593C19.9364 20.939 19.8706 21.0015 19.7908 21.0015H8.3599C8.31321 21.0015 8.26918 20.9798 8.2408 20.9427L6.42584 18.5722L2.99303 13.6391L2.96027 13.592L2.92148 13.5498C2.61681 13.2179 2.62777 12.7049 2.94633 12.3864C3.24392 12.0888 3.71567 12.057 4.05051 12.3119L4.05368 12.3143L7.35432 14.8033L8.71609 15.8302V14.1246V10.184V10.184L8.7162 4.62801V4.62799C8.7162 4.17689 9.08189 3.8112 9.533 3.8112C9.97283 3.8112 10.3315 4.15884 10.3491 4.59433V11.8515H12.0491V4.62799H12.0498V3.5168ZM16.2002 2.1112C15.807 2.1112 15.4349 2.20134 15.1034 2.36209C14.6849 1.553 13.8403 1 12.8666 1C11.8928 1 11.0482 1.553 10.6297 2.36209C10.2982 2.20134 9.92614 2.1112 9.533 2.1112C8.14301 2.1112 7.01621 3.23799 7.0162 4.62797V4.62799L7.01609 10.184V10.184V12.4191L5.08041 10.9594L5.07857 10.958C4.06702 10.1892 2.64285 10.2857 1.74425 11.1843C0.796648 12.1319 0.749903 13.6489 1.62713 14.6525L5.04149 19.5591L5.05253 19.5749L5.06428 19.5903L6.89099 21.9762C7.24105 22.4334 7.78406 22.7015 8.3599 22.7015H19.7908C20.7753 22.7015 21.5874 21.9304 21.6383 20.9472L22.0494 13.0059L22.0506 12.984V12.962V7.96158C22.0506 6.57159 20.9238 5.44479 19.5338 5.44479C19.2479 5.44479 18.9731 5.49246 18.717 5.58029V4.62799C18.717 3.238 17.5902 2.1112 16.2002 2.1112Z"
    fill="currentColor"
  />
  <path d="M11 18L17 18" stroke="#1C66E5" stroke-width="1.7" />
</svg>
