<svg xmlns="http://www.w3.org/2000/svg" width="24" height="25" viewBox="0 0 24 25" fill="none">
  <mask id="path-1-inside-1_3745_23167" fill="white">
    <path fill-rule="evenodd" clip-rule="evenodd" d="M3 3.02344C2.44772 3.02344 2 3.47115 2 4.02344V18.0234C2 18.5757 2.44772 19.0234 3 19.0234H7.00005V22.3234C7.00005 22.8178 7.56451 23.1001 7.96005 22.8034L13 19.0234H21C21.5523 19.0234 22 18.5757 22 18.0234V4.02344C22 3.47115 21.5523 3.02344 21 3.02344H3Z"/>
  </mask>
  <path d="M7.00005 19.0234H8.70005V17.3234H7.00005V19.0234ZM7.96005 22.8034L8.98005 24.1634H8.98005L7.96005 22.8034ZM13 19.0234V17.3234H12.4333L11.98 17.6634L13 19.0234ZM3.7 4.02344C3.7 4.41004 3.3866 4.72344 3 4.72344V1.32344C1.50883 1.32344 0.3 2.53227 0.3 4.02344H3.7ZM3.7 18.0234V4.02344H0.3V18.0234H3.7ZM3 17.3234C3.3866 17.3234 3.7 17.6368 3.7 18.0234H0.3C0.3 19.5146 1.50883 20.7234 3 20.7234V17.3234ZM7.00005 17.3234H3V20.7234H7.00005V17.3234ZM8.70005 22.3234V19.0234H5.30005V22.3234H8.70005ZM6.94005 21.4434C7.66521 20.8995 8.70005 21.417 8.70005 22.3234H5.30005C5.30005 24.2187 7.46381 25.3006 8.98005 24.1634L6.94005 21.4434ZM11.98 17.6634L6.94005 21.4434L8.98005 24.1634L14.02 20.3834L11.98 17.6634ZM21 17.3234H13V20.7234H21V17.3234ZM20.3 18.0234C20.3 17.6368 20.6134 17.3234 21 17.3234V20.7234C22.4912 20.7234 23.7 19.5146 23.7 18.0234H20.3ZM20.3 4.02344V18.0234H23.7V4.02344H20.3ZM21 4.72344C20.6134 4.72344 20.3 4.41004 20.3 4.02344H23.7C23.7 2.53227 22.4912 1.32344 21 1.32344V4.72344ZM3 4.72344H21V1.32344H3V4.72344Z" fill="currentColor" mask="url(#path-1-inside-1_3745_23167)"/>
  <path d="M7.5 9.02344H16.5" stroke="currentColor" stroke-width="1.7"/>
  <path d="M7.5 13.0234H12.5" style="stroke:var(--active-color-2);stroke-opacity:1;" stroke-width="1.7"/>
</svg>
