<svg
  width="20"
  height="20"
  viewBox="0 0 20 20"
  fill="none"
  xmlns="http://www.w3.org/2000/svg"
>
  <path
    d="M10.7895 14.134V11.9614C10.7895 11.9614 8.53747 10.8221 9.51777 8.96746C10.4981 7.11282 12.6971 8.04013 12.6971 8.04013C12.6971 8.04013 12.6971 5.33771 9.9152 5.33771C7.1333 5.33771 7.1333 8.04013 7.1333 8.04013"
    stroke="currentColor"
    style="
      stroke: currentColor;
      stroke: currentColor;
      stroke-opacity: 1;
    "
    stroke-width="1.5"
  />
  <path
    d="M15.9135 8.17616C15.9135 8.17616 15.9135 2.48633 10.0401 2.48633C4.16666 2.48633 4.16666 8.17616 4.16666 8.17616C4.11982 8.58605 4.28684 9.72601 5.32972 11.0067C6.37259 12.2874 6.83923 12.9507 7.15941 14.0256C7.47959 15.1005 7.79977 17.5018 10.6356 17.5018C13.4715 17.5018 13.4715 14.0256 13.4715 14.0256"
    stroke="currentColor"
    style="
      stroke: currentColor;
      stroke: currentColor;
      stroke-opacity: 1;
    "
    stroke-width="1.5"
  />
</svg>
