<svg width="24" height="24" viewBox="0 0 24 24" fill="none" xmlns="http://www.w3.org/2000/svg">
<path d="M16.0967 9.30159L15.8092 9.88091C15.5773 10.3482 15.7435 10.9152 16.191 11.1833L16.7458 11.5157C18.3381 12.4695 19.5334 13.4553 20.0373 15C20.2086 15.5249 20.2119 15.9198 20.2119 15.9198L21.9119 15.9139C21.9119 15.9139 21.9311 15.5455 21.8014 15C21.2726 12.7766 19.7258 11.3191 17.6195 10.0573C18.1838 8.92032 18.501 7.63899 18.501 6.28357C18.501 4.72147 18.0796 3.25779 17.3444 2L15.8757 2.85672C16.4639 3.86296 16.801 5.03389 16.801 6.28357C16.801 7.37098 16.547 8.39419 16.0967 9.30159Z" fill="currentColor"/>
<path d="M20.3027 17.125H22.0027V21.5002H20.3027L20.3027 17.125Z" style="fill:var(--active-color-2);fill-opacity:1;"/>
<g filter="url(#filter0_b_3678_51173)">
<mask id="path-3-inside-1_3678_51173" fill="white">
<path fill-rule="evenodd" clip-rule="evenodd" d="M10 11.0508C12.4853 11.0508 14.5 9.03606 14.5 6.55078C14.5 4.0655 12.4853 2.05078 10 2.05078C7.51472 2.05078 5.5 4.0655 5.5 6.55078C5.5 9.03606 7.51472 11.0508 10 11.0508ZM8 12.5003C4.68629 12.5003 2 15.1866 2 18.5003V21.0003C2 21.5526 2.44772 22.0003 3 22.0003H17C17.5523 22.0003 18 21.5526 18 21.0003V18.5003C18 15.1866 15.3137 12.5003 12 12.5003L10 15.4765L8 12.5003Z"/>
</mask>
<path d="M8 12.5003L9.41101 11.5521L8.9058 10.8003H8V12.5003ZM12 12.5003V10.8003H11.0942L10.589 11.5521L12 12.5003ZM10 15.4765L8.58899 16.4247L10 18.5245L11.411 16.4247L10 15.4765ZM12.8 6.55078C12.8 8.09718 11.5464 9.35078 10 9.35078V12.7508C13.4242 12.7508 16.2 9.97495 16.2 6.55078H12.8ZM10 3.75078C11.5464 3.75078 12.8 5.00438 12.8 6.55078H16.2C16.2 3.12662 13.4242 0.350781 10 0.350781V3.75078ZM7.2 6.55078C7.2 5.00438 8.4536 3.75078 10 3.75078V0.350781C6.57583 0.350781 3.8 3.12662 3.8 6.55078H7.2ZM10 9.35078C8.4536 9.35078 7.2 8.09718 7.2 6.55078H3.8C3.8 9.97495 6.57583 12.7508 10 12.7508V9.35078ZM3.7 18.5003C3.7 16.1255 5.62518 14.2003 8 14.2003V10.8003C3.74741 10.8003 0.3 14.2477 0.3 18.5003H3.7ZM3.7 21.0003V18.5003H0.3V21.0003H3.7ZM3 20.3003C3.3866 20.3003 3.7 20.6137 3.7 21.0003H0.3C0.3 22.4915 1.50883 23.7003 3 23.7003V20.3003ZM17 20.3003H3V23.7003H17V20.3003ZM16.3 21.0003C16.3 20.6137 16.6134 20.3003 17 20.3003V23.7003C18.4912 23.7003 19.7 22.4915 19.7 21.0003H16.3ZM16.3 18.5003V21.0003H19.7V18.5003H16.3ZM12 14.2003C14.3748 14.2003 16.3 16.1255 16.3 18.5003H19.7C19.7 14.2477 16.2526 10.8003 12 10.8003V14.2003ZM11.411 16.4247L13.411 13.4485L10.589 11.5521L8.58899 14.5284L11.411 16.4247ZM6.58899 13.4485L8.58899 16.4247L11.411 14.5284L9.41101 11.5521L6.58899 13.4485Z" fill="currentColor" mask="url(#path-3-inside-1_3678_51173)"/>
</g>
<defs>
<filter id="filter0_b_3678_51173" x="-6" y="-5.94922" width="32" height="35.9492" filterUnits="userSpaceOnUse" color-interpolation-filters="sRGB">
<feFlood flood-opacity="0" result="BackgroundImageFix"/>
<feGaussianBlur in="BackgroundImageFix" stdDeviation="4"/>
<feComposite in2="SourceAlpha" operator="in" result="effect1_backgroundBlur_3678_51173"/>
<feBlend mode="normal" in="SourceGraphic" in2="effect1_backgroundBlur_3678_51173" result="shape"/>
</filter>
</defs>
</svg>
