<svg xmlns="http://www.w3.org/2000/svg" width="20" height="20" viewBox="0 0 21 20" fill="none">
<g filter="url(#filter0_b_3556_40734)">
<path fill-rule="evenodd" clip-rule="evenodd" d="M10.5312 9C12.7404 9 14.5312 7.20914 14.5312 5C14.5312 2.79086 12.7404 1 10.5312 1C8.32211 1 6.53125 2.79086 6.53125 5C6.53125 7.20914 8.32211 9 10.5312 9ZM10.5312 13.5L8.44792 11H8.03125C5.26983 11 3.03125 13.2386 3.03125 16V17.5C3.03125 18.0523 3.47897 18.5 4.03125 18.5H17.0312C17.5835 18.5 18.0312 18.0523 18.0312 17.5V16C18.0312 13.2386 15.7927 11 13.0312 11H12.6146L10.5312 13.5Z" fill="currentColor"/>
</g>
<defs>
<filter id="filter0_b_3556_40734" x="-4.96875" y="-7" width="31" height="33.5" filterUnits="userSpaceOnUse" color-interpolation-filters="sRGB">
<feFlood flood-opacity="0" result="BackgroundImageFix"/>
<feGaussianBlur in="BackgroundImageFix" stdDeviation="4"/>
<feComposite in2="SourceAlpha" operator="in" result="effect1_backgroundBlur_3556_40734"/>
<feBlend mode="normal" in="SourceGraphic" in2="effect1_backgroundBlur_3556_40734" result="shape"/>
</filter>
</defs>
</svg>
