<svg width="15" height="13" viewBox="0 0 15 13" fill="none" xmlns="http://www.w3.org/2000/svg">
<path d="M1.33317 0C1.15636 0 0.98679 0.0702379 0.861766 0.195262C0.736742 0.320286 0.666504 0.489856 0.666504 0.666667V11.3333C0.666504 11.5101 0.736742 11.6797 0.861766 11.8047C0.98679 11.9298 1.15636 12 1.33317 12C1.50998 12 1.67955 11.9298 1.80458 11.8047C1.9296 11.6797 1.99984 11.5101 1.99984 11.3333V6.66667H7.99984V11.3333C7.99984 11.5101 8.07008 11.6797 8.1951 11.8047C8.32012 11.9298 8.48969 12 8.6665 12C8.84331 12 9.01288 11.9298 9.13791 11.8047C9.26293 11.6797 9.33317 11.5101 9.33317 11.3333V0.666667C9.33317 0.489856 9.26293 0.320286 9.13791 0.195262C9.01288 0.0702379 8.84331 0 8.6665 0C8.48969 0 8.32012 0.0702379 8.1951 0.195262C8.07008 0.320286 7.99984 0.489856 7.99984 0.666667V5.33333H1.99984V0.666667C1.99984 0.489856 1.9296 0.320286 1.80458 0.195262C1.67955 0.0702379 1.50998 0 1.33317 0ZM11.7358 6.60667C11.6952 6.62788 11.6497 6.63824 11.6039 6.63676C11.5581 6.63528 11.5134 6.622 11.4742 6.59821C11.435 6.57442 11.4025 6.54091 11.3801 6.50094C11.3576 6.46096 11.3458 6.41586 11.3458 6.37C11.3458 6.01467 11.3458 5.854 11.3485 5.31533C11.3486 5.26826 11.3612 5.22206 11.385 5.18143C11.4088 5.1408 11.4429 5.10718 11.4838 5.084L13.3298 4.03867C13.3703 4.0137 13.4169 4.00032 13.4645 4H14.4005C14.5565 4 14.6825 4.14 14.6825 4.312V11.3C14.6825 11.6953 14.3605 12.0153 13.9658 12.0153C13.872 12.0153 13.7791 11.9968 13.6924 11.9608C13.6057 11.9249 13.527 11.8721 13.4607 11.8057C13.3945 11.7392 13.342 11.6604 13.3062 11.5736C13.2705 11.4868 13.2522 11.3938 13.2525 11.3V5.81467L11.7358 6.608V6.60667Z" fill="black" style="fill:black;fill-opacity:1;"/>
</svg>
