<svg width="16" height="16" viewBox="0 0 16 16" fill="none" xmlns="http://www.w3.org/2000/svg">
<path d="M1.33317 2C1.15636 2 0.98679 2.07024 0.861766 2.19526C0.736742 2.32029 0.666504 2.48986 0.666504 2.66667V13.3333C0.666504 13.5101 0.736742 13.6797 0.861766 13.8047C0.98679 13.9298 1.15636 14 1.33317 14C1.50998 14 1.67955 13.9298 1.80458 13.8047C1.9296 13.6797 1.99984 13.5101 1.99984 13.3333V8.66667H7.99984V13.3333C7.99984 13.5101 8.07008 13.6797 8.1951 13.8047C8.32012 13.9298 8.48969 14 8.6665 14C8.84332 14 9.01288 13.9298 9.13791 13.8047C9.26293 13.6797 9.33317 13.5101 9.33317 13.3333V2.66667C9.33317 2.48986 9.26293 2.32029 9.13791 2.19526C9.01288 2.07024 8.84332 2 8.6665 2C8.48969 2 8.32012 2.07024 8.1951 2.19526C8.07008 2.32029 7.99984 2.48986 7.99984 2.66667V7.33333H1.99984V2.66667C1.99984 2.48986 1.9296 2.32029 1.80458 2.19526C1.67955 2.07024 1.50998 2 1.33317 2ZM15.3285 13.248C15.3285 12.874 15.0252 12.5713 14.6505 12.5713H12.5698L14.8412 9.72333C15.162 9.32113 15.3342 8.82048 15.3285 8.306C15.3218 7.64467 15.0972 7.09533 14.6585 6.66333C14.2272 6.22933 13.6638 6.00733 12.9765 6C12.3558 6.00733 11.8298 6.22667 11.4058 6.65467C11.1592 6.912 10.7785 7.35067 10.7785 7.72267C10.7785 8.11667 11.0985 8.436 11.4918 8.436C11.8672 8.436 12.0045 8.20467 12.1538 7.952C12.1938 7.88467 12.2338 7.816 12.2805 7.74933C12.3168 7.69759 12.3583 7.64977 12.4045 7.60667C12.5792 7.43867 12.7938 7.356 13.0592 7.356C13.3572 7.36267 13.5818 7.456 13.7392 7.638C13.8952 7.82467 13.9725 8.042 13.9725 8.296C13.9725 8.39333 13.9598 8.498 13.9345 8.61C13.9012 8.71133 13.8305 8.83733 13.7245 8.97533L10.7898 12.646C10.7521 12.6934 10.7317 12.7521 10.7318 12.8127V13.494C10.7318 13.6413 10.9098 13.9273 11.1358 13.9273H14.6505C15.0252 13.9273 15.3285 13.6227 15.3285 13.248Z" fill="black" style="fill:black;fill-opacity:1;"/>
</svg>
