<svg width="16" height="16" viewBox="0 0 16 16" fill="none" xmlns="http://www.w3.org/2000/svg">
<path d="M1.33317 2C1.15636 2 0.98679 2.07024 0.861766 2.19526C0.736742 2.32029 0.666504 2.48986 0.666504 2.66667V13.3333C0.666504 13.5101 0.736742 13.6797 0.861766 13.8047C0.98679 13.9298 1.15636 14 1.33317 14C1.50998 14 1.67955 13.9298 1.80458 13.8047C1.9296 13.6797 1.99984 13.5101 1.99984 13.3333V8.66667H7.99984V13.3333C7.99984 13.5101 8.07008 13.6797 8.1951 13.8047C8.32012 13.9298 8.48969 14 8.6665 14C8.84332 14 9.01288 13.9298 9.13791 13.8047C9.26293 13.6797 9.33317 13.5101 9.33317 13.3333V2.66667C9.33317 2.48986 9.26293 2.32029 9.13791 2.19526C9.01288 2.07024 8.84332 2 8.6665 2C8.48969 2 8.32012 2.07024 8.1951 2.19526C8.07008 2.32029 7.99984 2.48986 7.99984 2.66667V7.33333H1.99984V2.66667C1.99984 2.48986 1.9296 2.32029 1.80458 2.19526C1.67955 2.07024 1.50998 2 1.33317 2ZM15.3332 11.5307C15.3332 11.1907 15.2612 10.8653 15.1172 10.5567C14.9799 10.2818 14.7795 10.0433 14.5325 9.86067C14.7838 9.66267 14.9658 9.44067 15.0765 9.19333C15.1898 8.9 15.2445 8.60267 15.2445 8.29467C15.245 7.70396 15.0202 7.13531 14.6158 6.70467C14.1825 6.242 13.5985 6.00667 12.8732 6C12.5945 5.99981 12.3185 6.05459 12.061 6.1612C11.8034 6.26782 11.5695 6.42418 11.3725 6.62133C11.1398 6.84533 10.8072 7.20733 10.8072 7.544C10.8072 7.72081 10.8774 7.89038 11.0024 8.0154C11.1275 8.14043 11.297 8.21067 11.4738 8.21067C11.7952 8.21067 11.9852 7.976 12.1692 7.74933L12.2292 7.676C12.2672 7.62933 12.3098 7.588 12.3572 7.55267C12.5278 7.41933 12.7105 7.35533 12.9132 7.35533C13.2005 7.362 13.4325 7.45133 13.6125 7.62533C13.7905 7.80333 13.8832 8.032 13.8892 8.31867C13.8892 8.59667 13.8005 8.81867 13.6225 8.99067C13.3992 9.214 13.1118 9.24867 12.8145 9.24867C12.645 9.24867 12.4825 9.31599 12.3627 9.43583C12.2428 9.55566 12.1755 9.71819 12.1755 9.88767C12.1755 10.0571 12.2428 10.2197 12.3627 10.3395C12.4825 10.4593 12.645 10.5267 12.8145 10.5267H12.8732C13.1745 10.5253 13.4225 10.5247 13.6765 10.762C13.8698 10.9467 13.9712 11.2113 13.9778 11.5627C13.9712 11.9027 13.8712 12.1587 13.6772 12.3373C13.4798 12.5347 13.2438 12.6307 12.9598 12.6307C12.6932 12.6307 12.4852 12.5593 12.3305 12.42L12.3252 12.4147C12.277 12.3695 12.2297 12.3235 12.1832 12.2767C12.1165 12.2107 12.0645 12.1387 12.0138 12.07C11.8852 11.894 11.7698 11.7367 11.4738 11.7367C11.297 11.7367 11.1275 11.8069 11.0024 11.9319C10.8774 12.057 10.8072 12.2265 10.8072 12.4033C10.8072 12.786 11.1692 13.1967 11.4432 13.4253C11.8665 13.7787 12.3432 13.9853 12.8925 13.9853C13.5972 13.9787 14.1792 13.752 14.6318 13.3067C15.0918 12.8727 15.3252 12.2767 15.3332 11.5307Z" fill="black" style="fill:black;fill-opacity:1;"/>
</svg>
