<svg width="16" height="12" viewBox="0 0 16 12" fill="none" xmlns="http://www.w3.org/2000/svg">
<path d="M1.33317 0C1.15636 0 0.98679 0.0702379 0.861766 0.195262C0.736742 0.320286 0.666504 0.489856 0.666504 0.666667V11.3333C0.666504 11.5101 0.736742 11.6797 0.861766 11.8047C0.98679 11.9298 1.15636 12 1.33317 12C1.50998 12 1.67955 11.9298 1.80458 11.8047C1.9296 11.6797 1.99984 11.5101 1.99984 11.3333V6.66667H7.99984V11.3333C7.99984 11.5101 8.07007 11.6797 8.1951 11.8047C8.32012 11.9298 8.48969 12 8.6665 12C8.84331 12 9.01288 11.9298 9.13791 11.8047C9.26293 11.6797 9.33317 11.5101 9.33317 11.3333V0.666667C9.33317 0.489856 9.26293 0.320286 9.13791 0.195262C9.01288 0.0702379 8.84331 0 8.6665 0C8.48969 0 8.32012 0.0702379 8.1951 0.195262C8.07007 0.320286 7.99984 0.489856 7.99984 0.666667V5.33333H1.99984V0.666667C1.99984 0.489856 1.9296 0.320286 1.80458 0.195262C1.67955 0.0702379 1.50998 0 1.33317 0ZM14.4538 4.79333C14.4538 4.35467 14.1298 4 13.6918 4C13.4238 4 13.1425 4.136 12.9965 4.36133L10.0445 8.90867C10.0258 8.93744 10.0158 8.97102 10.0158 9.00533V10.0853C10.0158 10.232 10.1358 10.352 10.2825 10.352H13.2185V11.2607C13.2185 11.602 13.5052 11.8787 13.8458 11.8787C13.9265 11.8785 14.0063 11.8623 14.0806 11.8311C14.155 11.7998 14.2224 11.7542 14.2789 11.6967C14.3355 11.6392 14.3801 11.571 14.4101 11.4962C14.4401 11.4214 14.455 11.3413 14.4538 11.2607V10.352H14.7205C14.8881 10.3501 15.0482 10.282 15.166 10.1627C15.2837 10.0433 15.3495 9.88231 15.3492 9.71467C15.349 9.63245 15.3325 9.55107 15.3008 9.47524C15.269 9.39941 15.2225 9.33063 15.164 9.27287C15.1055 9.2151 15.0361 9.16949 14.9599 9.13868C14.8836 9.10786 14.8021 9.09245 14.7198 9.09333H14.4538V4.79333ZM11.4338 9.09333L13.2185 6.30867V9.09333H11.4338Z" fill="black" style="fill:black;fill-opacity:1;"/>
</svg>
