<svg xmlns="http://www.w3.org/2000/svg" viewBox="0 0 32 32" class="design-iconfont">
  <g fill="none" fill-rule="evenodd">
    <path stroke="#FFF" stroke-width="4" d="M16 3A13 13 0 1 0 16 29A13 13 0 1 0 16 3Z"/>
    <path d="M17,9 C17.5522847,9 18,9.44771525 18,10 L18,14 L22,14 C22.5522847,14 23,14.4477153 23,15 L23,17 C23,17.5522847 22.5522847,18 22,18 L18,18 L18,22 C18,22.5522847 17.5522847,23 17,23 L15,23 C14.4477153,23 14,22.5522847 14,22 L14,18 L10,18 C9.44771525,18 9,17.5522847 9,17 L9,15 C9,14.4477153 9.44771525,14 10,14 L14,14 L14,10 C14,9.44771525 14.4477153,9 15,9 L17,9 Z" fill="#FFF"/>
  </g>
</svg>
