<svg xmlns="http://www.w3.org/2000/svg" viewBox="0 0 40 40" class="design-iconfont">
  <path d="M33.1249949,12.5975068 C33.125987,12.1927264 32.9653415,11.8119812 32.6727082,11.5251414 C32.380218,11.2383482 31.9907874,11.0801159 31.5762276,11.0796501 C30.7257459,11.0796035 30.030569,11.7535699 30.0238934,12.5824615 C30.0198403,12.83595 30.0108758,15.8288564 30.0055352,17.6194392 C30.003771,18.2090026 30.0024835,18.645178 30.0020067,18.7647024 C30.0012914,18.9686297 29.8312523,19.1343149 29.6229234,19.1343149 C29.4127348,19.1337093 29.2432202,18.967046 29.2437924,18.7627926 C29.2508972,16.2259977 29.2634856,12.3452294 29.2725931,9.51162663 L29.2758356,8.50116611 C29.2774092,8.0958733 29.1170021,7.7143363 28.8243212,7.42707727 C28.5316879,7.13981825 28.1419712,6.981353 27.7270299,6.98084062 L27.6852593,6.98079404 C26.8315827,6.98079404 26.1359767,7.65788131 26.1328296,8.49017322 C26.1255818,10.3158774 26.1087495,15.5919038 26.1024553,17.5780762 L26.1020261,17.7072426 C26.1014062,17.9107507 25.9314148,18.0763427 25.7230382,18.0763427 C25.5128496,18.0757372 25.343335,17.9092136 25.3438595,17.7050999 C25.3481033,15.9608642 25.3554943,13.8340202 25.3625991,11.777186 C25.3675105,10.3565883 25.3722788,8.97059962 25.3758551,7.76985969 C25.3772856,7.3647532 25.2168308,6.98335594 24.9242453,6.6961435 C24.6315643,6.40893105 24.241943,6.25051238 23.8270971,6.25 L23.775742,6.25 C23.360467,6.25 22.9714178,6.40711443 22.6787369,6.69241709 C22.3854838,6.97818556 22.2237892,7.35837174 22.2233124,7.76296585 L22.2113439,17.6936878 C22.2111055,17.8976617 22.0410663,18.0635798 21.8322606,18.0635798 C21.7305995,18.0634866 21.635471,18.0248718 21.5639459,17.9548154 C21.4924684,17.8848056 21.4531296,17.7917853 21.4532726,17.6928494 L21.463,9.54507109 C21.4634292,9.1404304 21.3025453,8.75987158 21.0100551,8.47345099 C20.7175649,8.18703041 20.3283727,8.02903096 19.9141943,8.02856516 L19.8807206,8.02851858 C19.0249936,8.028472 18.3297691,8.70718957 18.3288632,9.54157759 L18.3131276,22.8009082 C18.3128892,22.9661276 18.1990688,23.1126218 18.0361822,23.1571523 C18.0027085,23.166282 17.9683764,23.1708934 17.9339966,23.1708934 C17.8026288,23.1708934 17.6785565,23.1027468 17.6102738,22.9930043 L13.984473,17.1723641 C13.6530731,16.6403271 13.0748161,16.3226513 12.4376223,16.3226047 C12.1728839,16.3226047 11.916204,16.3781281 11.6747827,16.4876843 C11.4796144,16.5762795 11.3049023,16.6949189 11.1557009,16.8403883 C10.9447493,17.0459925 10.7876801,17.3050241 10.7014208,17.5894417 C10.5517425,18.0830037 10.6234107,18.5950579 10.9033124,19.0312333 L11.2058161,19.502856 C12.7096087,21.8469027 13.9301139,24.4799785 14.8334766,27.3289061 C15.4102077,29.148089 16.5917079,30.7825356 18.1602068,31.9311524 C19.7818728,33.1187102 21.7135288,33.7476803 23.746369,33.75 L23.7575746,33.75 C26.2481759,33.75 28.5909108,32.8035963 30.3541488,31.0852126 C32.1253501,29.3567209 33.0980922,27.063726 33.0977107,24.6241902 L33.0971862,21.6735319 L33.1249949,12.5975068 Z" transform="matrix(-1 0 0 1 43.74999 0)" fill="#FFF" fill-rule="evenodd"/>
</svg>
