<svg xmlns="http://www.w3.org/2000/svg" xmlns:xlink="http://www.w3.org/1999/xlink" viewBox="0 0 32 32" class="design-iconfont">
  <defs>
    <path id="yku3p7b5ca" d="M0 0L19.663225 0 19.663225 24 0 24z"/>
  </defs>
  <g fill="none" fill-rule="evenodd">
    <g transform="translate(9.336775 4)">
      <mask id="lxsf2qwiob" fill="#CFD4E6">
        <use xlink:href="#yku3p7b5ca"/>
      </mask>
      <path d="M2.01181996,6.22817971 C2.01181996,6.10483933 2.05964775,5.98965368 2.14614481,5.90300961 C2.23365949,5.81636554 2.34864971,5.76845646 2.47178082,5.76845646 C2.72313112,5.76845646 2.92868885,5.97334421 2.93072407,6.22614103 L2.94191781,11.0343773 C2.94191781,11.3034836 3.0467319,11.5572998 3.23600783,11.7448587 C3.42630137,11.9354757 3.67866928,12.0404679 3.94630137,12.0404679 L3.94935421,12.0404679 C4.50293542,12.0394485 4.95373777,11.5868607 4.95373777,11.0313193 L4.93847358,3.04171657 C4.93847358,2.91837619 4.98630137,2.8021712 5.07178082,2.71552713 C5.1592955,2.62888306 5.27428571,2.58097398 5.42896282,2.58097398 C5.68133072,2.58097398 5.88790607,2.78688107 5.88892368,3.03967789 L5.90317025,10.2158457 C5.90418787,10.4839326 6.01001957,10.7357101 6.19827789,10.9253077 C6.39060665,11.116944 6.63890411,11.2637293 6.91162427,11.2198976 C7.46622309,11.2188782 7.91702544,10.7662904 7.91499022,10.210749 L7.89972603,2.47496241 C7.89972603,2.35264137 7.94755382,2.23643638 8.03405088,2.14979231 C8.18669276,1.99689101 8.52046967,1.94796259 8.72297456,2.14979231 C8.80947162,2.23643638 8.85831703,2.35264137 8.85831703,2.47496241 L8.85831703,10.2056523 C8.85831703,10.7611936 9.30911937,11.2137815 9.8637182,11.2137815 C10.418317,11.2137815 10.8691194,10.7611936 10.8691194,10.2056523 L10.8691194,3.86330624 C10.8691194,3.73996585 10.9169472,3.6247802 11.0034442,3.53813613 C11.0909589,3.45047272 11.2059491,3.40358299 11.3545205,3.40358299 C11.6068885,3.40358299 11.8124462,3.60949007 11.8124462,3.86330624 L11.8124462,14.2014729 C11.8327984,14.6846411 12.122818,15.0516042 12.5675147,15.1586351 C13.0152642,15.268724 13.4711546,15.0770877 13.6767123,14.7101246 L16.4354599,10.1822074 C16.6094716,9.89577228 16.9686888,9.78772203 17.2719374,9.92839122 C17.4479843,10.0109579 17.5700978,10.1526465 17.6250489,10.3391861 C17.6789824,10.5216483 17.6524213,10.7122652 17.5517808,10.8743406 L17.3218004,11.2413037 C16.1444227,13.116893 15.1888845,15.2228536 14.4826614,17.5000637 C14.0868102,18.7722025 13.2788258,19.9148849 12.2082975,20.7181264 C11.101135,21.5468515 9.7823092,21.9861879 8.39530333,21.9861879 C6.6948728,21.9861879 5.09315068,21.3215769 3.88626223,20.1126373 C2.681409,18.904717 2.02097847,17.3002727 2.02199609,15.5928748 L2.02504892,13.2962972 L2.01181996,6.22817971 Z M19.5544423,9.76937387 C19.3387084,9.03340893 18.8176908,8.42588109 18.1216438,8.10173033 C16.8893151,7.52580209 15.4270059,7.96921587 14.7167123,9.13330445 L13.8232485,10.5991183 L13.8232485,3.86330624 C13.8232485,2.49840728 12.7160861,1.38732448 11.327045,1.38732448 C11.0990998,1.38732448 10.8762427,1.41790474 10.6605088,1.47906526 C10.5373777,1.19874621 10.3633659,0.941872022 10.1445793,0.724752172 C9.67749511,0.256874188 9.05776908,0 8.35866928,0 C7.69823875,0 7.07749511,0.25789353 6.61142857,0.726790857 C6.57988258,0.757371117 6.55037182,0.788970719 6.52187867,0.820570322 C5.6304501,0.380214571 4.40422701,0.534135216 3.64712329,1.29252567 C3.18105675,1.76040366 2.9246184,2.38322163 2.92665362,3.04579394 L2.92767123,3.79501032 C2.13495108,3.64720573 1.29949119,3.90102189 0.723522505,4.47898881 C0.256438356,4.94584746 0,5.56866543 0,6.23021839 L0.0132289628,13.2962972 L0.0101761252,15.5908361 C0.0081409002,17.8364466 0.879217221,19.9485232 2.46669276,21.5397161 C4.05009785,23.1268316 6.15553816,24.0004077 8.39530333,24.0004077 C10.2198826,24.0004077 11.9549119,23.4234602 13.4131507,22.3317449 C14.8215264,21.2767259 15.8839139,19.7731964 16.4039139,18.0994368 C17.0572211,15.9904182 17.9394912,14.0444943 19.0242661,12.3146709 L19.2542466,11.9466884 C19.6623092,11.2983869 19.7711937,10.5033001 19.5544423,9.76937387 L19.5544423,9.76937387 Z" fill="#CFD4E6" mask="url(#lxsf2qwiob)"/>
    </g>
    <path d="M1.70755382,13.138605 C1.70755382,12.3853113 1.84798434,11.651385 2.12375734,10.9592518 C2.29878669,10.5219541 2.08508806,10.0234958 1.64853229,9.84816901 C1.21197652,9.6708035 0.71334638,9.88588466 0.54035225,10.3242017 C0.182152642,11.2202034 0,12.1671721 0,13.138605 C0,14.268036 0.244227006,15.3566933 0.722504892,16.3719579 C0.763209393,16.4606407 0.820195695,16.5401493 0.889393346,16.6125226 C1.05322896,16.7756173 1.27303327,16.8622614 1.4948728,16.8622614 C1.61800391,16.8622614 1.74215264,16.8347392 1.85714286,16.780714 C2.06473581,16.6828572 2.22043053,16.5105884 2.29675147,16.2955073 C2.37307241,16.0804261 2.36289628,15.8490354 2.26520548,15.642109 C1.89581213,14.8561963 1.70755382,14.0132005 1.70755382,13.138605" stroke="#CFD4E6" stroke-width=".1" fill="#CFD4E6" transform="translate(2.999695 4)"/>
    <path d="M4.14127593,13.1047629 C4.14127593,12.5706277 4.24100196,12.0507632 4.43638356,11.5594404 C4.61141292,11.1221427 4.39771429,10.6236844 3.96115851,10.4483576 C3.52562035,10.2709921 3.0259726,10.4860732 2.85196086,10.923371 C2.57517025,11.6165235 2.43372211,12.3504498 2.43372211,13.1047629 C2.43372211,14.0252287 2.64029746,14.9069596 3.0503953,15.7275299 C3.09313503,15.8111159 3.14605088,15.8855279 3.20914286,15.9477078 C3.37297847,16.1118218 3.59074755,16.1984659 3.81258708,16.1984659 C3.94182387,16.1984659 4.07309589,16.168905 4.19520939,16.1077445 C4.3987319,16.0058102 4.55035616,15.8304834 4.62260665,15.6133636 C4.69485714,15.3972631 4.67755773,15.1648531 4.57579648,14.9609847 C4.28781213,14.3830178 4.14127593,13.7581611 4.14127593,13.1047629" stroke="#CFD4E6" stroke-width=".1" fill="#CFD4E6" transform="translate(2.999695 4)"/>
  </g>
</svg>
