<svg xmlns="http://www.w3.org/2000/svg" viewBox="0 0 20 20" class="design-iconfont">
  <g fill="#CFD4E6" fill-rule="nonzero">
    <path d="M15,1.96108949 L8.58868262,1.96108949 L8.58868262,1.96108949 L8.37814211,0.818746841 C8.29070947,0.34435816 7.87708422,-8.86115063e-17 7.39470564,0 L1,0 C0.44771525,1.01453063e-16 -1.78657678e-16,0.44771525 0,1 L0,10.2581064 C-3.374056e-15,10.8103911 0.44771525,11.2581064 1,11.2581064 L6.89957504,11.2581064 L6.89957504,11.2581064 L6.89957504,13 C6.89957504,13.5522847 7.34729029,14 7.89957504,14 L15,14 C15.5522847,14 16,13.5522847 16,13 L16,2.96108949 C16,2.40880474 15.5522847,1.96108949 15,1.96108949 Z M4.80250503,8.31647211 L1.24356967,8.31647211 L1.24356967,3.02879377 L4.69335719,3.02879377 L4.69335719,3.80959792 L1.98971147,3.80959792 L1.98971147,5.21322957 L4.53589801,5.21322957 L4.53589801,5.97042802 L1.98971147,5.97042802 L1.98971147,7.57380026 L4.80250503,7.57380026 L4.80250503,8.31647211 L4.80250503,8.31647211 Z M6.97830463,5.06251621 C6.45224782,5.10972763 6.16953702,5.40570687 6.12122568,5.94682231 L6.12122568,8.31465629 L5.42339521,8.31465629 L5.42339521,4.42516213 L6.12301499,4.42516213 L6.12301499,4.90272374 C6.3269962,4.53592737 6.64191456,4.34526589 7.06598076,4.34526589 C7.91411317,4.31258106 8.33102214,4.8155642 8.29881458,5.84513619 L8.29881458,8.31647211 L7.5759338,8.31647211 L7.5759338,5.9232166 C7.5759338,5.34941634 7.37195258,5.06251621 6.97830463,5.06251621 L6.97830463,5.06251621 Z M14.6702848,12.3619358 C14.6702848,12.4981226 14.6148162,12.5780188 14.6380772,12.5852821 L8.40950801,12.5925454 C8.38624699,12.576203 8.33077842,12.4963067 8.33077842,12.3619358 L8.33077842,11.2562905 L10.317155,11.2562905 L9.02509348,3.43990564 L14.5915552,3.43264234 C14.6148162,3.44898476 14.6702848,3.52888099 14.6702848,3.66325194 L14.6702848,12.3619358 Z" transform="translate(2 3)"/>
    <path d="M13.0275835,6.86306292 L14.0765346,6.86306292 L14.0765346,6.19235069 L11.9281274,6.19235069 L11.8601399,6.09006707 C11.6639472,5.74465027 11.5104895,5.50822421 11.3997669,5.36066752 L11.3142968,5.25 L10.6227661,5.56691153 L10.6907537,5.6993772 C10.8267288,5.92741935 10.9219114,6.08168317 10.989899,6.19235069 L9.90439396,6.19235069 L10.2905983,8.53481316 L10.2905983,8.54152028 C10.4090909,8.704168 10.5470085,8.86513893 10.6907537,9.01269562 C10.6052836,9.06467582 10.5198135,9.11497924 10.4188034,9.16025232 L10.5722611,9.85946982 C10.8539239,9.72700415 11.0831391,9.60124561 11.2793318,9.48387097 C11.7746698,9.80748962 12.5594406,10.1311083 13.6686092,10.4631108 L13.8045843,10.5 L13.8725719,10.3977164 C13.9075369,10.3541201 13.950272,10.2870489 14.0260295,10.1696742 C14.0687646,10.0740977 14.1037296,10.0003194 14.1289821,9.94833919 L14.2222222,9.77898435 L14.0182595,9.74209518 C13.0703186,9.54255829 12.3535354,9.30110188 11.8756799,9.01269562 C12.4467754,8.46103481 12.8313908,7.73834238 13.0275835,6.86306292 Z M10.3061383,6.86306292 L12.2078477,6.86306292 C12.0718726,7.51868413 11.7649573,8.07872884 11.2948718,8.54152028 C10.8092463,8.06363782 10.4770785,7.49688598 10.3061383,6.86306292 L10.3061383,6.86306292 Z" transform="translate(2 3)"/>
  </g>
</svg>
