<svg xmlns="http://www.w3.org/2000/svg" viewBox="0 0 32 32" class="design-iconfont">
  <g fill="#ADB6CC" fill-rule="nonzero">
    <path d="M8,0 C10.7614237,0 13,2.23857625 13,5 C13,7.76142375 10.7614237,10 8,10 C5.23857625,10 3,7.76142375 3,5 C3,2.23857625 5.23857625,0 8,0 Z M8,2 C6.34314575,2 5,3.34314575 5,5 C5,6.65685425 6.34314575,8 8,8 C9.65685425,8 11,6.65685425 11,5 C11,3.34314575 9.65685425,2 8,2 Z" transform="translate(5 7)"/>
    <path d="M14.063645,0.877050597 C14.2054936,0.343292782 14.7531809,0.0255876346 15.2869387,0.167436288 C17.460518,0.745075225 19,2.71946355 19,5 C19,7.27800098 17.4639072,9.2507713 15.2936486,9.83077552 C14.7600895,9.97336982 14.2119588,9.65643024 14.0693645,9.12287115 C13.9267702,8.58931205 14.2437098,8.04118142 14.7772689,7.89858711 C16.0778493,7.55100545 17,6.36670748 17,5 C17,3.63177543 16.0758131,2.44650413 14.7732593,2.10034432 C14.2395015,1.95849567 13.9217963,1.41080841 14.063645,0.877050597 Z" transform="translate(5 7)"/>
    <path d="M12,11 C14.6887547,11 16.8818181,13.1223067 16.9953805,15.7831104 L17,16 L17,18 C17,18.5522847 16.5522847,19 16,19 C15.4871642,19 15.0644928,18.6139598 15.0067277,18.1166211 L15,18 L15,16 C15,14.4023191 13.75108,13.0963391 12.1762728,13.0050927 L12,13 L4,13 C2.40231912,13 1.09633912,14.24892 1.00509269,15.8237272 L1,16 L1,18 C1,18.5522847 0.55228475,19 0,19 C-0.512835839,19 -0.935507161,18.6139598 -0.993272269,18.1166211 L-1,18 L-1,16 C-1,13.3112453 1.12230671,11.1181819 3.78311038,11.0046195 L4,11 L12,11 Z" transform="translate(5 7)"/>
    <path d="M19,11 C21.1421954,11 22.8910789,12.6839685 22.9951047,14.8003597 L23,15 L23,18 C23,18.5522847 22.5522847,19 22,19 C21.4871642,19 21.0644928,18.6139598 21.0067277,18.1166211 L21,18 L21,15 C21,13.8954305 20.1045695,13 19,13 C18.4477153,13 18,12.5522847 18,12 C18,11.4477153 18.4477153,11 19,11 Z" transform="translate(5 7)"/>
  </g>
</svg>
