<svg xmlns="http://www.w3.org/2000/svg" viewBox="0 0 32 32" class="design-iconfont">
  <defs>
    <filter color-interpolation-filters="auto" id="q23gqwxp1a">
      <feColorMatrix in="SourceGraphic" values="0 0 0 0 0.678431 0 0 0 0 0.713725 0 0 0 0 0.800000 0 0 0 1.000000 0"/>
    </filter>
  </defs>
  <g fill="none" fill-rule="evenodd">
    <g filter="url(#q23gqwxp1a)" transform="translate(8 4)">
      <path d="M9,11.25 L9,7.75 C9,7.336 8.553,7 8,7 C7.447,7 7,7.336 7,7.75 L7,11.25 C7,11.66475 7.447,12 8,12 C8.553,12 9,11.66475 9,11.25 Z" fill="#FFF" fill-rule="nonzero" transform="translate(0 11)"/>
      <path d="M16,0.0214241394 L16,1.40988329 C16,4.4972195 12.418278,8 8,8 C3.581722,8 0,4.4972195 0,1.40988329 L0,0" stroke="#FFF" stroke-width="2" stroke-linecap="round" transform="translate(0 11)"/>
    </g>
    <path d="M8,1 C9.10796025,1 10.1203571,1.41882648 10.8527552,2.10615391 C11.5563763,2.76647524 12,3.67708685 12,4.69230769 L12,4.69230769 L12,11.3076923 C12,12.3229132 11.5563763,13.2335248 10.8527552,13.8938461 C10.1203571,14.5811735 9.10796025,15 8,15 C6.89203975,15 5.8796429,14.5811735 5.14724481,13.8938461 C4.44362372,13.2335248 4,12.3229132 4,11.3076923 L4,11.3076923 L4,4.69230769 C4,3.67708685 4.44362372,2.76647524 5.14724481,2.10615391 C5.8796429,1.41882648 6.89203975,1 8,1 Z" stroke="#ADB6CC" stroke-width="2" transform="translate(8 4)"/>
  </g>
</svg>
