<svg xmlns="http://www.w3.org/2000/svg" viewBox="0 0 32 32" class="design-iconfont">
  <g fill-rule="nonzero" fill="none">
    <path d="M17,10.0214241 C17.5128358,10.0214241 17.9355072,10.4074643 17.9932723,10.904803 L18,11.0214241 L18,12.4098833 C18,15.9981038 14.3107587,19.468587 10.0007882,19.9446127 L10,22.25 C10,22.66475 9.553,23 9,23 C8.48953846,23 8.06939645,22.7143432 8.0077797,22.3441839 L8,22.25 L8.00021106,19.944723 C6.70064752,19.8013321 5.45749491,19.3856852 4.35486729,18.7766389 L5.64193753,17.1944459 C6.65729306,17.6964137 7.81027123,18 9,18 C12.5936887,18 15.8520652,15.2300801 15.9951072,12.5896761 L16,12.4098833 L16,11.0214241 C16,10.4691394 16.4477153,10.0214241 17,10.0214241 Z M14,6.919 L14,11.3076923 C14,13.9149545 11.7412007,16 9,16 C8.2716206,16 7.577301,15.852786 6.95036779,15.5876778 L14,6.919 Z M1,10 C1.51283584,10 1.93550716,10.3860402 1.99327227,10.8833789 L2,11 L2,12.4098833 C2,12.6828263 2.03415548,12.9578692 2.09936973,13.2317822 L0.64544949,15.0373905 C0.264189624,14.2657924 0.037988881,13.4497173 0.00437544079,12.6243478 L0,12.4098833 L0,11 C0,10.4477153 0.44771525,10 1,10 Z M9,0 C10.1208968,0 11.1611337,0.348630322 11.9992557,0.939038179 L4,10.871 L4,4.69230769 C4,2.08504554 6.25879933,0 9,0 Z" transform="translate(7 4)" fill="#484C59"/>
    <path d="M15.4673455,0.704980783 C15.8970057,1.05198297 15.9640133,1.68159228 15.6170111,2.11125252 L2.27751137,18.628303 C1.93050918,19.0579633 1.30089988,19.1249709 0.871239632,18.7779687 C0.441579389,18.4309665 0.374571798,17.8013572 0.721573989,17.371697 L14.0610738,0.854646426 C14.408076,0.424986183 15.0376853,0.357978592 15.4673455,0.704980783 Z" fill="#65131D" transform="translate(7 4)"/>
  </g>
</svg>
