<svg xmlns="http://www.w3.org/2000/svg" viewBox="0 0 32 32" class="design-iconfont">
  <g fill="#ADB6CC" fill-rule="nonzero">
    <path d="M16,12 C18.209139,12 20,13.790861 20,16 C20,18.209139 18.209139,20 16,20 C13.790861,20 12,18.209139 12,16 C12,13.790861 13.790861,12 16,12 Z M16,14 C14.8954305,14 14,14.8954305 14,16 C14,17.1045695 14.8954305,18 16,18 C17.1045695,18 18,17.1045695 18,16 C18,14.8954305 17.1045695,14 16,14 Z"/>
    <path d="M17.9273368,5 L14.0729132,5 C13.2318693,5 12.4523287,5.61590845 12.2771702,6.43741314 L12.0224224,7.63344521 C12.0121872,7.68149783 11.8801835,7.84625634 11.8231778,7.87327967 L10.9329609,8.36902746 C10.8170892,8.44198854 10.5864168,8.47265724 10.5174521,8.45050726 L9.32158739,8.066439 C8.52601117,7.81098563 7.59803307,8.15344778 7.17086353,8.87067129 L5.24385657,12.1058876 C4.80773992,12.8384997 4.97207871,13.8270747 5.61727645,14.3842489 L6.55901719,15.1966302 C6.60033638,15.2322884 6.67864657,15.4187293 6.67539705,15.4634363 L6.67042977,16.4636415 C6.67622935,16.5830871 6.59780196,16.7698856 6.55643001,16.8055893 L5.61767574,17.6154065 C4.9720444,18.1731644 4.80718674,19.1618925 5.24381825,19.8941562 L7.17086355,23.1296916 C7.59833097,23.8465867 8.52535768,24.1884202 9.32053125,23.9338396 L10.5146628,23.5505449 C10.5833146,23.5284897 10.8141818,23.5592679 10.8715331,23.5967626 L11.7653509,24.096023 C11.87995,24.152528 12.0117269,24.316964 12.022008,24.365173 L12.2771329,25.5627748 C12.4523448,26.38453 13.2319344,27 14.0729132,27 L17.9273368,27 C18.7688861,27 19.548804,26.3840764 19.7230613,25.5617164 L19.9779335,24.3673895 C19.9882999,24.3186018 20.1203816,24.1536404 20.1776691,24.1264371 L21.0671858,23.6309256 C21.1824749,23.5584435 21.413761,23.5277426 21.482612,23.549856 L22.6788526,23.933652 C23.4747011,24.1884489 24.4021047,23.8465212 24.8290709,23.1297501 L26.7564938,19.8937382 C27.1926847,19.1614811 27.0279657,18.1728265 26.3825829,17.6156561 L25.4413445,16.8034662 C25.3997797,16.767584 25.3215801,16.5815695 25.3248182,16.5373127 L25.3296336,15.5359748 C25.3238005,15.416589 25.4020946,15.2301303 25.4436028,15.194285 L26.3822189,14.3847486 C27.0280568,13.8271855 27.1926024,12.8384456 26.7563176,12.1059174 L24.8290662,8.87060487 C24.4024064,8.15351988 23.4743001,7.81101042 22.6785895,8.06637236 L21.4847133,8.44988823 C21.4161523,8.47192013 21.1853694,8.44115156 21.1280061,8.40365445 L20.2345875,7.90442668 C20.1207683,7.84823309 19.9887141,7.68332947 19.9785935,7.63579419 L19.7227526,6.43719493 C19.5488201,5.61636248 18.7689511,5 17.9273368,5 Z M14.202,7 L17.797,7 L18.0225461,8.05278166 C18.1633698,8.71421443 18.7055027,9.39120636 19.3213498,9.68255901 L20.0952673,10.1148763 L20.2277675,10.1930532 C20.738382,10.4627125 21.5082244,10.5430608 22.0964956,10.3540212 L23.177,10.006 L24.949,12.979 L24.1368934,13.6801812 C23.6192247,14.1272248 23.2834356,14.9269127 23.3322104,15.6053682 L23.3274868,16.4620296 L23.323603,16.6178026 C23.3377937,17.20131 23.6600074,17.9078324 24.1345799,18.3175224 L24.949,19.02 L23.177,21.993 L22.093901,21.6455646 C21.4528917,21.4396872 20.5953888,21.5535117 20.0322612,21.9208464 L19.2601425,22.3505878 L19.1322581,22.4181137 C18.6231536,22.7161131 18.1516877,23.3394917 18.0217899,23.9508542 L17.797,25 L14.202,25 L13.9780684,23.9482464 C13.8366969,23.285347 13.2945005,22.6087745 12.677849,22.3175281 L11.9041714,21.8854904 L11.7717166,21.8073281 C11.2612492,21.5377172 10.4913514,21.4573589 9.90317371,21.6463178 L8.821,21.993 L7.05,19.02 L7.86296333,18.3198451 C8.38047038,17.87324 8.71631802,17.0733175 8.66788792,16.3949458 L8.67276275,15.5384448 L8.67657924,15.3825622 C8.66217619,14.7986669 8.34010977,14.0919158 7.86554479,13.6823694 L7.051,12.98 L8.822,10.006 L9.90587827,10.3547072 C10.5478466,10.5608936 11.4057463,10.4468328 11.9688906,10.0784423 L12.7400236,9.64945915 L12.8678373,9.5820769 C13.3766941,9.28462228 13.8483265,8.66143697 13.9785424,8.05009207 L14.202,7 Z"/>
  </g>
</svg>
