<svg xmlns="http://www.w3.org/2000/svg" viewBox="0 0 32 32" class="design-iconfont">
  <g fill="none" fill-rule="evenodd">
    <path d="M4,0 L28,0 C30.209139,-4.05812251e-16 32,1.790861 32,4 L32,28 C32,30.209139 30.209139,32 28,32 L7.95884232,32 L7.95884232,32 L4,32 C1.790861,32 2.705415e-16,30.209139 0,28 L0,4 C-2.705415e-16,1.790861 1.790861,4.05812251e-16 4,0 Z" fill="#006EFF"/>
    <path d="M26.4999959,10.0780055 C26.5007896,9.75418111 26.3722732,9.449585 26.1381666,9.22011315 C25.9041744,8.99067857 25.5926299,8.86409269 25.2609821,8.86372005 C24.5805967,8.86368279 24.0244552,9.40285591 24.0191147,10.0659692 C24.0158722,10.26876 24.0087006,12.6630851 24.0044282,14.0955514 C24.0030168,14.5672021 24.0019868,14.9161424 24.0016053,15.0117619 C24.0010331,15.1749038 23.8650018,15.3074519 23.6983387,15.3074519 C23.5301878,15.3069675 23.3945761,15.1736368 23.3950339,15.0102341 C23.4007177,12.9807982 23.4107885,9.87618351 23.4180745,7.6093013 L23.4206685,6.80093289 C23.4219273,6.47669864 23.2936017,6.17146904 23.0594569,5.94166182 C22.8253503,5.7118546 22.513577,5.5850824 22.181624,5.58467249 L22.1482074,5.58463523 C21.4652662,5.58463523 20.9087814,6.12630505 20.9062637,6.79213858 C20.9004654,8.2527019 20.8869996,12.4735231 20.8819642,14.0624609 L20.8816209,14.1657941 C20.881125,14.3286006 20.7451318,14.4610742 20.5784305,14.4610742 C20.4102797,14.4605897 20.274668,14.3273709 20.2750876,14.1640799 C20.2784827,12.7686914 20.2843954,11.0672162 20.2900793,9.42174877 C20.2940084,8.28527065 20.2978231,7.1764797 20.3006841,6.21588775 C20.3018285,5.89180256 20.1734647,5.58668475 19.9393962,5.3569148 C19.7052515,5.12714484 19.3935544,5.0004099 19.0616777,5 L19.0205936,5 C18.6883736,5 18.3771343,5.12569154 18.1429895,5.35393367 C17.908387,5.58254845 17.7790314,5.88669739 17.7786499,6.21037268 L17.7690751,14.1549502 C17.7688844,14.3181294 17.6328531,14.4508638 17.4658084,14.4508638 C17.3844796,14.4507893 17.3083768,14.4198974 17.2511567,14.3638523 C17.1939747,14.3078445 17.1625036,14.2334283 17.1626181,14.1542795 L17.1704,7.63605687 C17.1707433,7.31234432 17.0420362,7.00789726 16.8080441,6.7787608 C16.5740519,6.54962433 16.2626981,6.42322477 15.9313555,6.42285213 L15.9045765,6.42281486 C15.2199949,6.4227776 14.6638153,6.96575165 14.6630905,7.63326207 L14.6505021,18.2407266 C14.6503114,18.3729021 14.5592551,18.4900974 14.4289458,18.5257218 C14.4021668,18.5330256 14.3747011,18.5367147 14.3471973,18.5367147 C14.242103,18.5367147 14.1428452,18.4821975 14.088219,18.3944034 L11.1875784,13.7378913 C10.9224585,13.3122617 10.4598529,13.058121 9.95009788,13.0580838 C9.73830713,13.0580838 9.53296318,13.1025025 9.33982619,13.1901475 C9.18369155,13.2610236 9.04392186,13.3559351 8.92456068,13.4723106 C8.75579947,13.636794 8.63014408,13.8440192 8.56113661,14.0715534 C8.44139397,14.4664029 8.49872853,14.8760463 8.72264994,15.2249866 L8.96465292,15.6022848 C10.1676869,17.4775222 11.1440911,19.5839828 11.8667813,21.8631248 C12.3281662,23.3184712 13.2733663,24.6260284 14.5281655,25.5449219 C15.8254983,26.4949682 17.370823,26.9981443 18.9970952,27 L19.0060597,27 C20.9985407,27 22.8727286,26.2428771 24.2833191,24.8681701 C25.7002801,23.4853768 26.4784737,21.6509808 26.4781686,19.6993522 L26.4777489,17.3388255 L26.4999959,10.0780055 Z" fill="#FFF" transform="matrix(-1 0 0 1 34.999992 0)"/>
  </g>
</svg>
