<svg xmlns="http://www.w3.org/2000/svg" viewBox="0 0 21 20" class="design-iconfont">
  <g fill="none" fill-rule="evenodd">
    <path d="M12.190054,10.6191988 C12.3316787,10.1644729 12.8434707,9.90245401 13.3331734,10.0339632 C13.8228761,10.1654725 14.1050491,10.6407099 13.9634244,11.0954358 C13.829103,11.5267121 13.6244145,11.932299 13.3582718,12.2968723 C12.5863715,13.3542535 11.3508503,14 10,14 C8.64914975,14 7.41362847,13.3542535 6.64172816,12.2968723 C6.37558548,11.932299 6.17089696,11.5267121 6.03657563,11.0954358 C5.89495092,10.6407099 6.1771239,10.1654725 6.66682661,10.0339632 C7.15652933,9.90245401 7.66832132,10.1644729 7.80994603,10.6191988 C7.89050982,10.8778715 8.01248159,11.1195564 8.16978184,11.3350329 C8.60743814,11.9345527 9.27950551,12.2858094 10,12.2858094 C10.7204945,12.2858094 11.3925619,11.9345527 11.8302182,11.3350329 C11.9875184,11.1195564 12.1094902,10.8778715 12.190054,10.6191988 Z" fill="#ADB6CC" fill-rule="nonzero"/>
    <g fill="#ADB6CC">
      <path d="M1 0A1 1 0 1 0 1 2A1 1 0 1 0 1 0Z" transform="translate(6 6)"/>
      <path d="M7 0A1 1 0 1 0 7 2A1 1 0 1 0 7 0Z" transform="translate(6 6)"/>
    </g>
    <path stroke="#ADB6CC" stroke-width="1.5" d="M10 1.75A8.25 8.25 0 1 0 10 18.25A8.25 8.25 0 1 0 10 1.75Z"/>
  </g>
</svg>
