<svg xmlns="http://www.w3.org/2000/svg" viewBox="0 0 32 32" class="design-iconfont">
  <g stroke="#ADB6CC" stroke-linecap="round" fill="none" fill-rule="evenodd">
    <path d="M23.2727273,7.09090909 C24.2768814,7.09090909 25.1859723,7.49792295 25.8440247,8.15597534 C26.502077,8.81402773 26.9090909,9.72311864 26.9090909,10.7272727 L26.9090909,10.7272727 L26.9090909,21.2727273 C26.9090909,22.2768814 26.502077,23.1859723 25.8440247,23.8440247 C25.1859723,24.502077 24.2768814,24.9090909 23.2727273,24.9090909 L23.2727273,24.9090909 L8.72727273,24.9090909 C7.72311864,24.9090909 6.81402773,24.502077 6.15597534,23.8440247 C5.49792295,23.1859723 5.09090909,22.2768814 5.09090909,21.2727273 L5.09090909,21.2727273 L5.09090909,10.7272727 C5.09090909,9.72311864 5.49792295,8.81402773 6.15597534,8.15597534 C6.81402773,7.49792295 7.72311864,7.09090909 8.72727273,7.09090909 L8.72727273,7.09090909 Z" stroke-width="1.81818182"/>
    <path d="M9,21 L9,18 C9,17.4477153 9.44771525,17 10,17 L13,17 L13,17" stroke-width="2" transform="matrix(1 0 0 -1 0 38)"/>
    <path d="M19,15 L19,12 C19,11.4477153 19.4477153,11 20,11 L23,11 L23,11" stroke-width="2" transform="matrix(-1 0 0 1 42 0)"/>
  </g>
</svg>
