<svg width="18" height="18" viewBox="0 0 18 18" fill="none" xmlns="http://www.w3.org/2000/svg">
<path d="M6.7781 7.22222C8.49633 7.22222 9.88921 5.82933 9.88921 4.11111C9.88921 2.39289 8.49633 1 6.7781 1C5.05988 1 3.66699 2.39289 3.66699 4.11111C3.66699 5.82933 5.05988 7.22222 6.7781 7.22222Z" stroke="#ADB6CC" stroke-width="1.5" stroke-linejoin="round"/>
<path d="M17 13.8889L12.5556 13.8889" stroke="#ADB6CC" stroke-width="1.5" stroke-linecap="round" stroke-linejoin="round"/>
<path d="M15.2222 15.6666L17 13.8889L15.2222 12.1111" stroke="#ADB6CC" stroke-width="1.5" stroke-linecap="round" stroke-linejoin="round"/>
<path d="M10.3333 10.7778H6.68889C4.6976 10.7778 3.70196 10.7778 2.94138 11.1653C2.27235 11.5062 1.72841 12.0502 1.38753 12.7192C1 13.4798 1 14.4754 1 16.4667V17.0001H10.3333" stroke="#ADB6CC" stroke-width="1.5" stroke-linecap="round" stroke-linejoin="round"/>
</svg>
