<svg xmlns="http://www.w3.org/2000/svg" viewBox="0 0 32 32" class="design-iconfont">
  <g fill="#D2D7E6" fill-rule="nonzero">
    <path d="M9,0 C11.7614237,0 14,2.23857625 14,5 C14,7.76142375 11.7614237,10 9,10 C6.23857625,10 4,7.76142375 4,5 C4,2.23857625 6.23857625,0 9,0 Z" transform="translate(4 7)"/>
    <path d="M15.063645,0.877050597 C15.2054936,0.343292782 15.7531809,0.0255876346 16.2869387,0.167436288 C18.460518,0.745075225 20,2.71946355 20,5 C20,7.27800098 18.4639072,9.2507713 16.2936486,9.83077552 C15.7600895,9.97336982 15.2119588,9.65643024 15.0693645,9.12287115 C14.9267702,8.58931205 15.2437098,8.04118142 15.7772689,7.89858711 C17.0778493,7.55100545 18,6.36670748 18,5 C18,3.63177543 17.0758131,2.44650413 15.7732593,2.10034432 C15.2395015,1.95849567 14.9217963,1.41080841 15.063645,0.877050597 Z" transform="translate(4 7)"/>
    <path d="M13,11 C15.6887547,11 17.8818181,13.1223067 17.9953805,15.7831104 L18,16 L18,18 C18,18.5522847 17.5522847,19 17,19 C16.4871642,19 1.55228475,19 1,19 C0.487164161,19 0.0644928393,18.6139598 0.00672773133,18.1166211 L0,18 L0,16 C0,13.3112453 2.12230671,11.1181819 4.78311038,11.0046195 L5,11 L13,11 Z" transform="translate(4 7)"/>
    <path d="M20,11 C22.1421954,11 23.8910789,12.6839685 23.9951047,14.8003597 L24,15 L24,18 C24,18.5522847 23.5522847,19 23,19 C22.4871642,19 22.0644928,18.6139598 22.0067277,18.1166211 L22,18 L22,15 C22,13.8954305 21.1045695,13 20,13 C19.4477153,13 19,12.5522847 19,12 C19,11.4477153 19.4477153,11 20,11 Z" transform="translate(4 7)"/>
  </g>
</svg>
