<svg width="16" height="17" viewBox="0 0 16 17" fill="none" xmlns="http://www.w3.org/2000/svg">
<path fill-rule="evenodd" clip-rule="evenodd" d="M1.60011 3.35596C1.01101 3.35596 0.533447 3.83352 0.533447 4.42262V12.156C0.533447 12.7451 1.01101 13.2226 1.60011 13.2226H10.3557C10.9448 13.2226 11.4223 12.7451 11.4223 12.156V4.42262C11.4223 3.83352 10.9448 3.35596 10.3557 3.35596H1.60011ZM12.5778 10.0273V6.50346L15.064 5.02827C15.2418 4.92279 15.4667 5.0509 15.4667 5.2576V11.3759C15.4667 11.5862 15.2347 11.7137 15.0572 11.601L12.5778 10.0273Z" fill="#147AFF"/>
<path d="M7.80081 9.56451L7.86937 9.45015C7.85409 9.44099 7.8347 9.42955 7.81659 9.4199L7.75001 9.38442L7.68532 9.42321C7.64764 9.4458 7.59515 9.48021 7.54473 9.51326C7.53779 9.51781 7.5309 9.52233 7.52408 9.52679L7.52372 9.52702C7.42751 9.59046 7.30223 9.67227 7.13349 9.77482C6.92327 9.90251 6.69272 9.89001 6.48997 9.82864C6.28688 9.76717 6.12849 9.66115 6.08307 9.62867L6.08315 9.62856L6.0782 9.62534C6.01542 9.58452 5.65172 9.34671 5.381 9.07624C5.10992 8.80338 4.86963 8.43934 4.83047 8.37868L4.8306 8.3786L4.82685 8.37336C4.79415 8.32771 4.68739 8.1692 4.62544 7.9661C4.56361 7.76339 4.55097 7.53318 4.67932 7.32342C4.78216 7.15643 4.86323 7.03196 4.92576 6.93675L4.92607 6.93626C4.93387 6.92428 4.94193 6.91196 4.95003 6.89957C4.98048 6.85304 5.01162 6.80544 5.0322 6.77031L5.0709 6.70424L5.03334 6.63751L5.0187 6.61191L5.00538 6.58862L5.00541 6.5886L5.00388 6.58601C4.99229 6.56647 4.98023 6.54484 4.96607 6.51943C4.96211 6.51231 4.95798 6.5049 4.95364 6.49715L4.95353 6.49694C4.35378 5.42905 3.95303 5.32138 3.81781 5.32138H3.80982H3.79136L3.77359 5.32639C3.66844 5.35608 3.57356 5.43595 3.49628 5.53351C3.41683 5.6338 3.34602 5.76508 3.29288 5.91891C3.18638 6.22721 3.14747 6.63568 3.26108 7.09137L3.2611 7.09145C3.5065 8.07335 4.03062 9.00568 4.73669 9.71635L4.73724 9.7169C5.44652 10.4226 6.37957 10.9453 7.36208 11.1895C7.81016 11.3022 8.21757 11.2625 8.52661 11.1566C8.68088 11.1038 8.81315 11.0336 8.91453 10.9552C9.01288 10.8791 9.09468 10.7854 9.12577 10.6812L9.12604 10.6813L9.12796 10.6729C9.14335 10.6058 9.12316 10.5305 9.09211 10.4632C9.05844 10.3901 9.00215 10.305 8.91677 10.2096C8.74601 10.0187 8.45073 9.77752 7.95697 9.50014L7.95668 9.49998C7.92299 9.48117 7.89422 9.46486 7.86874 9.44978L7.80081 9.56451ZM7.80081 9.56451C7.82777 9.58047 7.85772 9.59743 7.89167 9.61639L6.00551 9.73712C6.10736 9.80996 6.69348 10.1981 7.20271 9.88878C7.37345 9.78501 7.50026 9.7022 7.59711 9.63834C7.60401 9.63382 7.61093 9.62929 7.61782 9.62478C7.66879 9.59137 7.7187 9.55866 7.75388 9.53757C7.76886 9.54555 7.78583 9.55553 7.80081 9.56451Z" fill="white" stroke="white" stroke-width="0.266667"/>
</svg>
