<svg xmlns="http://www.w3.org/2000/svg" viewBox="0 0 32 32" class="design-iconfont">
  <g fill="#ADB6CC" fill-rule="nonzero">
    <path d="M23.2727273,6.18181818 L8.72727273,6.18181818 C6.2168875,6.18181818 4.18181818,8.2168875 4.18181818,10.7272727 L4.18181818,21.2727273 C4.18181818,23.7831125 6.2168875,25.8181818 8.72727273,25.8181818 L23.2727273,25.8181818 C25.7831125,25.8181818 27.8181818,23.7831125 27.8181818,21.2727273 L27.8181818,10.7272727 C27.8181818,8.2168875 25.7831125,6.18181818 23.2727273,6.18181818 Z M23.2727273,8 C24.7789584,8 26,9.22104159 26,10.7272727 L26,21.2727273 C26,22.7789584 24.7789584,24 23.2727273,24 L8.72727273,24 C7.22104159,24 6,22.7789584 6,21.2727273 L6,10.7272727 C6,9.22104159 7.22104159,8 8.72727273,8 L23.2727273,8 Z"/>
    <path d="M12,17 C12.5522847,17 13,17.4477153 13,18 C13,18.5128358 12.6139598,18.9355072 12.1166211,18.9932723 L12,19 L10,19 L10,21 C10,21.5522847 9.55228475,22 9,22 C8.48716416,22 8.06449284,21.6139598 8.00672773,21.1166211 L8,21 L8,19 C8,17.9456382 8.81587779,17.0818349 9.85073766,17.0054857 L10,17 L12,17 Z" transform="matrix(-1 0 0 1 21 0)"/>
    <path d="M23,17 C23.5522847,17 24,17.4477153 24,18 C24,18.5128358 23.6139598,18.9355072 23.1166211,18.9932723 L23,19 L21,19 L21,21 C21,21.5522847 20.5522847,22 20,22 C19.4871642,22 19.0644928,21.6139598 19.0067277,21.1166211 L19,21 L19,19 C19,17.9456382 19.8158778,17.0818349 20.8507377,17.0054857 L21,17 L23,17 Z"/>
    <path d="M12,10 C12.5522847,10 13,10.4477153 13,11 C13,11.5128358 12.6139598,11.9355072 12.1166211,11.9932723 L12,12 L10,12 L10,14 C10,14.5522847 9.55228475,15 9,15 C8.48716416,15 8.06449284,14.6139598 8.00672773,14.1166211 L8,14 L8,12 C8,10.9456382 8.81587779,10.0818349 9.85073766,10.0054857 L10,10 L12,10 Z" transform="rotate(180 10.5 12.5)"/>
    <path d="M23,10 C23.5522847,10 24,10.4477153 24,11 C24,11.5128358 23.6139598,11.9355072 23.1166211,11.9932723 L23,12 L21,12 L21,14 C21,14.5522847 20.5522847,15 20,15 C19.4871642,15 19.0644928,14.6139598 19.0067277,14.1166211 L19,14 L19,12 C19,10.9456382 19.8158778,10.0818349 20.8507377,10.0054857 L21,10 L23,10 Z" transform="matrix(1 0 0 -1 0 25)"/>
  </g>
</svg>
