<svg width="136" height="36" viewBox="0 0 136 36" fill="none" xmlns="http://www.w3.org/2000/svg">
<path d="M99.6579 8.20836H105.302V15.9506H99.6579V8.20836ZM107.662 6.0849H92.8331V8.20836H97.2975V15.9506H92.1812V18.0741H97.2975V31.0579H99.6579V18.0744H105.302V30.7861H109.759V28.6614H107.662V6.0849H107.662Z" fill="white"/>
<path d="M78.2263 25.1199H66.5269V27.2433H78.2263V25.1199Z" fill="white"/>
<path d="M63.7057 13.304H60.7005V8.26158H63.7057V13.304ZM60.7005 15.2153H63.7057V20.2976H60.7005V15.2153ZM58.5549 21.1897C58.5549 25.0511 58.2394 27.9825 57.5901 30.5797C57.5215 30.8199 57.5956 30.8846 57.7227 30.8846H59.8742C60.5927 27.3166 60.6864 24.3565 60.6986 22.2089H63.7057V28.8112H61.5701C61.4664 28.8112 61.3856 28.8784 61.4407 29.0253L62.0288 30.9349H65.8472V6.13812H58.5549V21.1897Z" fill="white"/>
<path d="M76.4278 14.7466C76.9419 15.5836 77.4953 16.3135 78.0667 16.9548H71.0423C71.5876 16.3323 72.1156 15.6056 72.6075 14.7466H76.4278ZM79.0547 14.7466H81.9356V12.8353H73.5414C73.7948 12.2246 74.0227 11.5699 74.2303 10.8607H81.4093V8.94941H79.3065C79.6564 7.76868 80.0697 6.37482 80.0939 6.29421C80.1354 6.15275 80.0604 6.09827 79.968 6.09827H78.1408L77.2941 8.94941H74.7119C74.9524 7.84419 75.1626 6.62046 75.3532 5.2473C75.3754 5.088 75.2888 5.05646 75.1823 5.05646H73.103C72.8902 6.51564 72.6677 7.77346 72.3828 8.94941H71.1163L70.2697 6.09827H68.4428C68.3504 6.09827 68.275 6.15307 68.3169 6.29421C68.3407 6.37482 68.7541 7.76836 69.104 8.94941H67.0559V10.8607H71.8388C71.6443 11.4641 71.3584 12.1749 71.0533 12.8353H66.5299V14.7466H69.9275C68.5574 16.6713 67.0936 17.557 66.5093 17.9109V20.0972C66.5093 20.2074 66.5972 20.3243 66.9464 20.1284C67.5816 19.7719 68.2593 19.3685 68.9459 18.8667H76.9377L76.8704 21.7287H70.561L70.657 20.0175C70.657 19.9436 70.6029 19.8882 70.5263 19.8882H68.5081L68.305 23.5109C68.305 23.5849 68.3591 23.6403 68.436 23.6403H79.3219V28.8079H74.4151C74.3115 28.8079 74.231 28.8752 74.286 29.022L74.8739 30.9317H81.6819V21.7281H79.017L79.1049 18.0116C80.1016 18.9289 81.1128 19.611 82.0322 20.1277C82.3815 20.3237 82.4694 20.2068 82.4694 20.0965V17.9103C81.8857 17.5567 80.4239 16.6687 79.0547 14.7466Z" fill="white"/>
<path d="M94.3292 23.6432C94.2893 23.6731 92.2872 25.1744 90.3495 26.6275V12.8226H84.835V15.1583H88.005V28.3855C87.2497 28.952 86.7375 29.3362 86.7375 29.3362L88.0327 31.0296L94.5423 26.1483V23.7432C94.542 23.6279 94.4135 23.5798 94.3292 23.6432Z" fill="white"/>
<path d="M88.3163 10.7313H90.8959C91.0102 10.7313 91.0569 10.6083 91.006 10.5322C90.9593 10.4615 87.7523 5.61432 87.7523 5.61432H85.1727C85.0748 5.61432 85.0047 5.72615 85.0584 5.80739C85.1122 5.88895 88.3163 10.7313 88.3163 10.7313Z" fill="white"/>
<path d="M133.377 6.65167H114.749V8.98763H133.377V6.65167Z" fill="white"/>
<path d="M121.505 17.8157H136V15.4797H112.126V17.8157H118.749C117.381 21.3709 113.948 30.2923 113.925 30.357C113.887 30.4605 113.955 30.5373 114.046 30.5373H134.638C134.736 30.5373 134.791 30.4421 134.757 30.3522C134.735 30.2958 131.686 22.3634 131.686 22.3634H129.123C129.026 22.3634 128.968 22.4567 129 22.5411C129.032 22.6256 131.172 28.2014 131.172 28.2014H117.519L121.505 17.8157Z" fill="white"/>
<path d="M46.9358 16.3715C44.8314 14.248 41.8987 12.9099 38.6382 12.9096C35.8197 12.9096 33.3934 13.8711 31.2748 15.5785C30.3515 16.3227 29.3825 17.2135 28.164 18.385C27.5588 18.9668 10.009 35.8197 10.009 35.8197C10.9291 35.949 12.1946 35.9879 13.3226 35.9946C14.3795 36.0013 34.5433 35.9994 35.3874 35.9994C37.0862 35.9994 38.1917 35.9975 39.3793 35.9118C42.1031 35.7149 44.6759 34.7266 46.7559 32.7047C51.3745 28.2167 51.4437 20.9313 46.9358 16.3715ZM43.5627 29.4754C42.6677 30.3522 41.071 31.3475 38.4499 31.4355C37.2381 31.4762 35.8226 31.4807 35.1752 31.4807C34.4683 31.4807 28.2365 31.4807 21.0929 31.4807C26.2167 26.5558 30.686 22.2595 31.193 21.7727C31.6576 21.3257 32.7022 20.3371 33.6033 19.5339C35.5812 17.7711 37.3621 17.4162 38.6218 17.428C40.5952 17.4464 42.3899 18.2436 43.6728 19.5314C46.4165 22.3073 46.3518 26.7438 43.5627 29.4754Z" fill="#00A4FF"/>
<path d="M18.6215 15.2879C16.5586 13.7599 14.2494 12.9061 11.6308 12.9099C8.37039 12.9099 5.43764 14.248 3.33322 16.3718C-1.17471 20.9313 -1.10517 28.2167 3.51349 32.7054C5.36811 34.5074 7.6145 35.488 10.01 35.8194L14.5288 31.4801C13.798 31.4772 12.7499 31.467 11.8192 31.4358C9.19838 31.3475 7.60195 30.3519 6.707 29.4758C3.91783 26.7441 3.8528 22.3076 6.59722 19.532C7.88009 18.2442 9.67483 17.4471 11.6482 17.4286C12.8844 17.4238 14.5629 17.7791 16.4591 19.3348C17.3643 20.0774 19.3744 21.8256 20.2562 22.6128C20.3009 22.6527 20.355 22.6562 20.4078 22.6135L23.5189 19.6094C23.5727 19.5578 23.5691 19.488 23.5163 19.4402C22.0194 18.1015 19.8982 16.2288 18.6215 15.2879Z" fill="#00C7D9"/>
<path d="M39.8614 10.3019C37.7148 4.30044 31.9337 0 25.134 0C17.3347 0 10.8714 5.67583 9.70117 13.0699C10.3283 12.965 10.9728 12.9099 11.6308 12.9099C12.5467 12.9083 13.4236 13.0144 14.2664 13.2151C14.2831 13.2186 14.2992 13.2202 14.3157 13.2244C15.3719 8.23226 19.8312 4.52409 25.134 4.52409C29.5508 4.52409 33.4251 7.16049 35.1722 10.8961C35.1996 10.955 35.246 10.9744 35.2939 10.9617C36.6074 10.6045 38.1829 10.3965 39.704 10.5074C39.8524 10.5182 39.9094 10.4357 39.8614 10.3019Z" fill="#006EFF"/>
</svg>
