<svg xmlns="http://www.w3.org/2000/svg" viewBox="0 0 32 32" class="design-iconfont">
  <path d="M23.7777778,7 C25.5484354,7 27,8.39350203 27,10.1333333 L27,10.1333333 L27,19.7333333 C27,21.4731646 25.5484354,22.8666667 23.7777778,22.8666667 L23.7777778,22.8666667 L9.625,22.866 L6.5390537,24.8422714 C5.90514121,25.2479754 5.08271401,24.8337283 5.00582505,24.1107054 L5.00582505,24.1107054 L5,24 L5,10.1333333 C5,8.39350203 6.45156462,7 8.22222222,7 L8.22222222,7 Z M19.5,13.5 L12.5,13.5 L12.3833789,13.5067277 C11.8860402,13.5644928 11.5,13.9871642 11.5,14.5 C11.5,15.0522847 11.9477153,15.5 12.5,15.5 L12.5,15.5 L19.5,15.5 L19.6166211,15.4932723 C20.1139598,15.4355072 20.5,15.0128358 20.5,14.5 C20.5,13.9477153 20.0522847,13.5 19.5,13.5 L19.5,13.5 Z" fill="#D2D7E6" fill-rule="nonzero"/>
</svg>
