<svg xmlns="http://www.w3.org/2000/svg" viewBox="0 0 32 32" class="design-iconfont">
  <g fill="#ADB6CC" fill-rule="evenodd">
    <path d="M8,0 C10.7614237,0 13,2.23857625 13,5 C13,7.76142375 10.7614237,10 8,10 C5.23857625,10 3,7.76142375 3,5 C3,2.23857625 5.23857625,0 8,0 Z M8,2 C6.34314575,2 5,3.34314575 5,5 C5,6.65685425 6.34314575,8 8,8 C9.65685425,8 11,6.65685425 11,5 C11,3.34314575 9.65685425,2 8,2 Z" fill-rule="nonzero" transform="translate(5 7)"/>
    <path d="M12,11 C14.6887547,11 16.8818181,13.1223067 16.9953805,15.7831104 L17,16 L17,18 C17,18.5522847 16.5522847,19 16,19 C15.4871642,19 15.0644928,18.6139598 15.0067277,18.1166211 L15,18 L15,16 C15,14.4023191 13.75108,13.0963391 12.1762728,13.0050927 L12,13 L4,13 C2.40231912,13 1.09633912,14.24892 1.00509269,15.8237272 L1,16 L1,18 C1,18.5522847 0.55228475,19 0,19 C-0.512835839,19 -0.935507161,18.6139598 -0.993272269,18.1166211 L-1,18 L-1,16 C-1,13.3112453 1.12230671,11.1181819 3.78311038,11.0046195 L4,11 L12,11 Z" fill-rule="nonzero" transform="translate(5 7)"/>
    <path d="M19,5 C19.5522847,5 20,5.44771525 20,6 L19.999,7 L21,7 C21.5522847,7 22,7.44771525 22,8 C22,8.55228475 21.5522847,9 21,9 L19.999,9 L20,10 C20,10.5522847 19.5522847,11 19,11 C18.4477153,11 18,10.5522847 18,10 L17.999,9 L17,9 C16.4477153,9 16,8.55228475 16,8 C16,7.44771525 16.4477153,7 17,7 L17.999,7 L18,6 C18,5.44771525 18.4477153,5 19,5 Z" transform="translate(5 7)"/>
  </g>
</svg>
