<svg xmlns="http://www.w3.org/2000/svg" viewBox="0 0 32 32" class="design-iconfont">
  <g fill="none" fill-rule="evenodd">
    <path stroke="#D2D7E6" stroke-width="2" stroke-linecap="round" d="M11 24.5L21 24.5"/>
    <path d="M24,7 C25.1045695,7 26,7.8954305 26,9 L26,19 C26,20.1045695 25.1045695,21 24,21 L8,21 C6.8954305,21 6,20.1045695 6,19 L6,9 C6,7.8954305 6.8954305,7 8,7 L24,7 Z M16.5388324,11.1574609 C16.1205366,10.889205 15.5581456,10.9681754 15.2317787,11.3598156 L15.2317787,11.3598156 L15.1574609,11.4611676 C14.889205,11.8794634 14.9681754,12.4418544 15.3598156,12.7682213 L15.3598156,12.7682213 L16.237,13.5 L13,13.5 L12.8833789,13.5067277 C12.3860402,13.5644928 12,13.9871642 12,14.5 C12,15.0522847 12.4477153,15.5 13,15.5 L13,15.5 L19,15.5 L19.1142004,15.4940349 C19.9685978,15.4035359 20.3287612,14.3055927 19.6401844,13.7317787 L19.6401844,13.7317787 L16.6401844,11.2317787 Z" fill="#D2D7E6"/>
  </g>
</svg>
