<svg width="16" height="17" viewBox="0 0 16 17" fill="none" xmlns="http://www.w3.org/2000/svg">
<path fill-rule="evenodd" clip-rule="evenodd" d="M1.60011 3.56665C1.01101 3.56665 0.533447 4.04421 0.533447 4.63332V12.3666C0.533447 12.9558 1.01101 13.4333 1.60011 13.4333H10.3557C10.9448 13.4333 11.4223 12.9558 11.4223 12.3666V4.63332C11.4223 4.04421 10.9448 3.56665 10.3557 3.56665H1.60011ZM12.5778 10.2379V6.71416L15.064 5.23896C15.2418 5.13348 15.4667 5.2616 15.4667 5.46829V11.5866C15.4667 11.7969 15.2347 11.9244 15.0572 11.8117L12.5778 10.2379Z" fill="#15B72D"/>
<path d="M7.80081 9.7752L7.86937 9.66085C7.85409 9.65168 7.8347 9.64025 7.81659 9.63059L7.75001 9.59512L7.68532 9.63391C7.64764 9.6565 7.59515 9.6909 7.54473 9.72395C7.53779 9.7285 7.5309 9.73302 7.52408 9.73748L7.52372 9.73772C7.42751 9.80115 7.30223 9.88296 7.13349 9.98551C6.92327 10.1132 6.69272 10.1007 6.48997 10.0393C6.28688 9.97786 6.12849 9.87184 6.08307 9.83936L6.08315 9.83925L6.0782 9.83604C6.01542 9.79521 5.65172 9.5574 5.381 9.28693C5.10992 9.01407 4.86963 8.65004 4.83047 8.58937L4.8306 8.58929L4.82685 8.58406C4.79415 8.53841 4.68739 8.37989 4.62544 8.17679C4.56361 7.97408 4.55097 7.74387 4.67932 7.53412C4.78216 7.36712 4.86323 7.24265 4.92576 7.14744L4.92607 7.14695C4.93387 7.13497 4.94193 7.12265 4.95003 7.11026C4.98048 7.06373 5.01162 7.01613 5.0322 6.981L5.0709 6.91493L5.03334 6.8482L5.0187 6.8226L5.00538 6.79931L5.00541 6.7993L5.00388 6.79671C4.99229 6.77717 4.98023 6.75553 4.96607 6.73012C4.96211 6.72301 4.95798 6.71559 4.95364 6.70785L4.95353 6.70763C4.35378 5.63974 3.95303 5.53207 3.81781 5.53207H3.80982H3.79136L3.77359 5.53709C3.66844 5.56678 3.57356 5.64664 3.49628 5.7442C3.41683 5.8445 3.34602 5.97578 3.29288 6.12961C3.18638 6.4379 3.14747 6.84637 3.26108 7.30207L3.2611 7.30214C3.5065 8.28405 4.03062 9.21637 4.73669 9.92705L4.73724 9.92759C5.44652 10.6333 6.37957 11.156 7.36208 11.4002C7.81016 11.5129 8.21757 11.4732 8.52661 11.3673C8.68088 11.3145 8.81315 11.2443 8.91453 11.1658C9.01288 11.0898 9.09468 10.9961 9.12577 10.8919L9.12604 10.892L9.12796 10.8836C9.14335 10.8165 9.12316 10.7412 9.09211 10.6739C9.05844 10.6008 9.00215 10.5157 8.91677 10.4203C8.74601 10.2294 8.45073 9.98821 7.95697 9.71084L7.95668 9.71067C7.92299 9.69186 7.89422 9.67556 7.86874 9.66047L7.80081 9.7752ZM7.80081 9.7752C7.82777 9.79116 7.85772 9.80813 7.89167 9.82708L6.00551 9.94781C6.10736 10.0206 6.69348 10.4088 7.20271 10.0995C7.37345 9.99571 7.50026 9.91289 7.59711 9.84903C7.60401 9.84452 7.61093 9.83999 7.61782 9.83547C7.66879 9.80206 7.7187 9.76935 7.75388 9.74826C7.76886 9.75624 7.78583 9.76622 7.80081 9.7752Z" fill="white" stroke="white" stroke-width="0.266667"/>
</svg>
