<svg width="20" height="20" viewBox="0 0 20 20" fill="none" xmlns="http://www.w3.org/2000/svg">
<g id="Group 7826">
<path id="Union" fill-rule="evenodd" clip-rule="evenodd" d="M10 17.0833C13.912 17.0833 17.0833 13.912 17.0833 10C17.0833 6.08798 13.912 2.91667 10 2.91667C6.08798 2.91667 2.91667 6.08798 2.91667 10C2.91667 13.912 6.08798 17.0833 10 17.0833ZM10 18.75C14.8325 18.75 18.75 14.8325 18.75 10C18.75 5.16751 14.8325 1.25 10 1.25C5.16751 1.25 1.25 5.16751 1.25 10C1.25 14.8325 5.16751 18.75 10 18.75ZM10 11.1789L7.64329 13.5356L6.46478 12.3571L8.82149 10.0004L6.46415 7.64307L7.64266 6.46456L10 8.8219L12.3573 6.46456L13.5358 7.64307L11.1785 10.0004L13.5352 12.3571L12.3567 13.5356L10 11.1789Z" fill="#EB3A5E"/>
</g>
</svg>
