<?xml version="1.0" encoding="UTF-8"?>
<svg width="24px" height="24px" viewBox="0 0 24 24" version="1.1" xmlns="http://www.w3.org/2000/svg" xmlns:xlink="http://www.w3.org/1999/xlink">
    <title></title>
    <g stroke="none" stroke-width="1" fill="none" fill-rule="evenodd" stroke-linecap="round" stroke-linejoin="round">
        <g transform="translate(-16.000000, -549.000000)" stroke="#444E60">
            <g transform="translate(8.000000, 285.000000)">
                <g transform="translate(8.000000, 264.000000)">
                    <path d="M10.6666667,9.66666667 L10.6666667,6.16666667 C10.6666667,5.52233446 11.1890011,5 11.8333333,5 C12.4776655,5 13,5.52233446 13,6.16666667 L13,9.66666667 L13,9.66666667 C14.2886644,9.66666667 15.3333333,10.7113356 15.3333333,12 L15.3333333,12 L15.3333333,12 L8.33333333,12 C8.33333333,10.7113356 9.37800225,9.66666667 10.6666667,9.66666667 L10.6666667,9.66666667 L10.6666667,9.66666667 Z"></path>
                    <path d="M15.3333333,12 L17.6666667,17.8333333 C13.8159078,18.6034851 9.85075886,18.6034851 6,17.8333333 L8.33333333,12"></path>
                    <line x1="11.8333333" y1="17.8333333" x2="11.8333333" y2="15.5"></line>
                    <line x1="9.5" y1="17.8333333" x2="9.5" y2="15.5"></line>
                    <line x1="14.1666667" y1="17.8333333" x2="14.1666667" y2="15.5"></line>
                </g>
            </g>
        </g>
    </g>
</svg>