<?xml version="1.0" encoding="UTF-8"?>
<svg width="24px" height="24px" viewBox="0 0 24 24" version="1.1" xmlns="http://www.w3.org/2000/svg" xmlns:xlink="http://www.w3.org/1999/xlink">
    <title></title>
    <g stroke="none" stroke-width="1" fill="none" fill-rule="evenodd" stroke-linecap="round" stroke-linejoin="round">
        <g transform="translate(-48.000000, -224.000000)" stroke="#3381FF">
            <g transform="translate(48.000000, 224.000000)">
                <path d="M12.5,5 C13.0522847,5 13.5,5.44771525 13.5,6 L13.5,7 C13.5,6.44771525 13.9477153,6 14.5,6 C15.0522847,6 15.5,6.44771525 15.5,7 L15.5,7 L15.5,9 C15.5,8.44771525 15.9477153,8 16.5,8 C17.0522847,8 17.5,8.44771525 17.5,9 L17.5,9 L17.5,15 C17.5,17.209139 15.709139,19 13.5,19 L12.1375846,19 C10.5374722,19 9.09131968,18.0464126 8.46100451,16.5756772 L6.77854301,12.6499337 C6.61031263,12.2573961 6.69801722,11.8019828 7,11.5 C7.27614237,11.2238576 7.72385763,11.2238576 8,11.5 L9.5,13 L9.5,7 L9.50672773,6.88337887 C9.56449284,6.38604019 9.98716416,6 10.5,6 C11.0522847,6 11.5,6.44771525 11.5,7 L11.5,7 L11.5,6 C11.5,5.44771525 11.9477153,5 12.5,5 Z M11.5,6 L11.5,10 M13.5,6 L13.5,10 M15.5,8 L15.5,10" transform="translate(12.000000, 12.000000) rotate(45.000000) translate(-12.000000, -12.000000) "></path>
            </g>
        </g>
    </g>
</svg>