<?xml version="1.0" encoding="UTF-8"?>
<svg width="170px" height="29px" viewBox="0 0 170 29" version="1.1" xmlns="http://www.w3.org/2000/svg" xmlns:xlink="http://www.w3.org/1999/xlink">
    <!-- Generator: Sketch 55.1 (78136) - https://sketchapp.com -->
    <title>mask (1)</title>
    <desc>Created with Sketch.</desc>
    <g stroke="none" stroke-width="1" fill="none" fill-rule="evenodd">
        <g id="mask-(1)" transform="translate(0.000000, -0.177515)" fill="#FFFFFF" fill-rule="nonzero">
            <path d="M170,0.177514793 L170,29.1775148 L0,29.1775148 L0,0.177514793 L170,0.177514793 Z M155.702875,7.70508717 L155.434123,7.71050163 L8.49907471,13.4220166 C7.82142679,13.4483583 7.28571429,14.0026739 7.28571429,14.6775148 C7.28571429,15.3523557 7.82142679,15.9066713 8.49907471,15.933013 L8.49907471,15.933013 L155.434123,21.644528 C155.525243,21.6480696 155.616424,21.649841 155.707613,21.649841 C159.577292,21.649841 162.714286,18.5282242 162.714286,14.6775148 C162.714286,14.5867726 162.712506,14.4960388 162.708947,14.4053655 C162.557902,10.5575911 159.300853,7.56019825 155.434123,7.71050163 L155.702875,7.70508717 Z" id="mask"></path>
        </g>
    </g>
</svg>