<?xml version="1.0" encoding="UTF-8"?>
<svg width="24px" height="24px" viewBox="0 0 24 24" version="1.1" xmlns="http://www.w3.org/2000/svg" xmlns:xlink="http://www.w3.org/1999/xlink">
    <title></title>
    <g stroke="none" stroke-width="1" fill="none" fill-rule="evenodd">
        <g transform="translate(-128.000000, -128.000000)" stroke="#3381FF">
            <g transform="translate(56.000000, 88.000000)">
                <g transform="translate(72.000000, 40.000000)">
                    <path d="M11.8220813,5.53069562 C12.3696773,5.62507662 12.4625734,5.72554557 12.5206245,5.84774318 L12.5206245,5.84774318 L14.2189736,9.42277042 L17.9920285,9.99234378 C18.1520889,10.0165062 18.2857395,10.1091286 18.3751462,10.2348609 C18.4719375,10.3709779 18.5180744,10.5461839 18.4934299,10.727512 C18.4738012,10.8719348 18.4101452,11.0060802 18.3101095,11.107382 L18.3101095,11.107382 L15.6017319,13.8500424 L16.2437398,17.738772 C16.273578,17.9195063 16.2322362,18.0963001 16.1392467,18.2355891 C16.0531778,18.3645118 15.9218276,18.4616905 15.7619923,18.4909999 C15.6401188,18.5133481 15.5148269,18.4923492 15.4051219,18.4324315 L15.4051219,18.4324315 L11.9999312,16.5726127 L8.59474046,18.4324315 C8.45624603,18.5080732 8.30173213,18.5180361 8.16377893,18.4719016 C8.01822109,18.4232239 7.89275102,18.3137981 7.81733557,18.160431 C7.75356476,18.0307448 7.73238084,17.8825791 7.75612261,17.738772 L7.75612261,17.738772 L8.39813049,13.8500424 L5.68975282,11.107382 C5.56536722,10.981422 5.50330824,10.813681 5.50012823,10.6457587 C5.49693852,10.4773242 5.55293545,10.306672 5.67278368,10.1752191 C5.76224575,10.0770947 5.87963871,10.0116959 6.00783388,9.99234378 L6.00783388,9.99234378 L9.78088874,9.42277042 L11.4792378,5.84774318 C11.5527358,5.69302981 11.6769476,5.58159072 11.8220813,5.53069562 Z"></path>
                </g>
            </g>
        </g>
    </g>
</svg>