<?xml version="1.0" encoding="UTF-8"?>
<svg width="24px" height="24px" viewBox="0 0 24 24" version="1.1" xmlns="http://www.w3.org/2000/svg" xmlns:xlink="http://www.w3.org/1999/xlink">
    <title></title>
    <g stroke="none" stroke-width="1" fill="none" fill-rule="evenodd">
        <g transform="translate(-64.000000, -48.000000)" stroke="#444E60">
            <g transform="translate(56.000000, 8.000000)">
                <g transform="translate(8.000000, 40.000000)">
                    <path d="M12,5.5 C12.3399741,5.5 12.6799483,5.62969577 12.9393398,5.8890873 L12.9393398,5.8890873 L18.1109127,11.0606602 C18.3703042,11.3200517 18.5,11.6600259 18.5,12 C18.5,12.3399741 18.3703042,12.6799483 18.1109127,12.9393398 L18.1109127,12.9393398 L12.9393398,18.1109127 C12.6799483,18.3703042 12.3399741,18.5 12,18.5 C11.6600259,18.5 11.3200517,18.3703042 11.0606602,18.1109127 L11.0606602,18.1109127 L5.8890873,12.9393398 C5.62969577,12.6799483 5.5,12.3399741 5.5,12 C5.5,11.6600259 5.62969577,11.3200517 5.8890873,11.0606602 L5.8890873,11.0606602 L11.0606602,5.8890873 C11.3200517,5.62969577 11.6600259,5.5 12,5.5 Z"></path>
                </g>
            </g>
        </g>
    </g>
</svg>