<?xml version="1.0" encoding="UTF-8"?>
<svg width="24px" height="24px" viewBox="0 0 24 24" version="1.1" xmlns="http://www.w3.org/2000/svg" xmlns:xlink="http://www.w3.org/1999/xlink">
    <title></title>
    <g stroke="none" stroke-width="1" fill="none" fill-rule="evenodd">
        <g transform="translate(-160.000000, -48.000000)" stroke="#444E60">
            <g transform="translate(56.000000, 8.000000)">
                <g transform="translate(104.000000, 40.000000)">
                    <path d="M16.5,6 C16.9142136,6 17.2892136,6.16789322 17.5606602,6.43933983 C17.8321068,6.71078644 18,7.08578644 18,7.5 L18,7.5 L18,13.7142857 C18,14.1284993 17.8321068,14.5034993 17.5606602,14.7749459 C17.2892136,15.0463925 16.9142136,15.2142857 16.5000418,15.2142857 L16.5000418,15.2142857 L12.862101,15.2139816 L10.4309693,17.8655011 L9.7122759,15.2139169 L7.5,15.2142857 C7.08578644,15.2142857 6.71078644,15.0463925 6.43933983,14.7749459 C6.16789322,14.5034993 6,14.1284993 6,13.7142857 L6,13.7142857 L6,7.5 C6,7.08578644 6.16789322,6.71078644 6.43933983,6.43933983 C6.71078644,6.16789322 7.08578644,6 7.5,6 L7.5,6 Z"></path>
                </g>
            </g>
        </g>
    </g>
</svg>