<svg width="17" height="17" viewBox="0 0 17 17" fill="none" xmlns="http://www.w3.org/2000/svg">
<path fill-rule="evenodd" clip-rule="evenodd" d="M2.10011 3.56676C1.51101 3.56676 1.03345 4.04432 1.03345 4.63342V12.3668C1.03345 12.9559 1.51101 13.4334 2.10011 13.4334H10.8557C11.4448 13.4334 11.9223 12.9559 11.9223 12.3668V4.63342C11.9223 4.04432 11.4448 3.56676 10.8557 3.56676H2.10011ZM13.0778 10.2381V6.71426L15.564 5.23907C15.7418 5.13359 15.9667 5.2617 15.9667 5.4684V11.5867C15.9667 11.797 15.7347 11.9245 15.5572 11.8118L13.0778 10.2381Z" fill="#888888"/>
<path d="M8.30081 9.77528L8.36937 9.66093C8.35409 9.65177 8.3347 9.64033 8.31659 9.63068L8.25001 9.5952L8.18532 9.63399C8.14764 9.65658 8.09515 9.69099 8.04473 9.72404C8.03779 9.72858 8.0309 9.7331 8.02408 9.73757L8.02372 9.7378C7.92751 9.80123 7.80223 9.88304 7.63349 9.9856C7.42327 10.1133 7.19272 10.1008 6.98997 10.0394C6.78688 9.97794 6.62849 9.87192 6.58307 9.83944L6.58315 9.83934L6.5782 9.83612C6.51542 9.79529 6.15172 9.55749 5.881 9.28701C5.60992 9.01416 5.36963 8.65012 5.33047 8.58946L5.3306 8.58937L5.32685 8.58414C5.29415 8.53849 5.18739 8.37997 5.12544 8.17688C5.06361 7.97416 5.05097 7.74396 5.17932 7.5342C5.28216 7.36721 5.36323 7.24274 5.42576 7.14753L5.42607 7.14704C5.43387 7.13505 5.44193 7.12274 5.45003 7.11035C5.48048 7.06382 5.51162 7.01622 5.5322 6.98109L5.5709 6.91502L5.53334 6.84829L5.5187 6.82268L5.50538 6.7994L5.50541 6.79938L5.50388 6.79679C5.49229 6.77725 5.48023 6.75561 5.46607 6.73021C5.46211 6.72309 5.45798 6.71568 5.45364 6.70793L5.45353 6.70772C4.85378 5.63982 4.45303 5.53216 4.31781 5.53216H4.30982H4.29136L4.27359 5.53717C4.16844 5.56686 4.07356 5.64673 3.99628 5.74429C3.91683 5.84458 3.84602 5.97586 3.79288 6.12969C3.68638 6.43799 3.64747 6.84646 3.76108 7.30215L3.7611 7.30222C4.0065 8.28413 4.53062 9.21646 5.23669 9.92713L5.23724 9.92767C5.94652 10.6334 6.87957 11.1561 7.86208 11.4003C8.31016 11.513 8.71757 11.4733 9.02661 11.3674C9.18088 11.3145 9.31315 11.2443 9.41453 11.1659C9.51288 11.0899 9.59468 10.9962 9.62577 10.892L9.62604 10.8921L9.62796 10.8837C9.64335 10.8166 9.62316 10.7413 9.59211 10.674C9.55844 10.6009 9.50215 10.5158 9.41677 10.4204C9.24601 10.2295 8.95073 9.9883 8.45697 9.71092L8.45668 9.71075C8.42299 9.69194 8.39422 9.67564 8.36874 9.66056L8.30081 9.77528ZM8.30081 9.77528C8.32777 9.79125 8.35772 9.80821 8.39167 9.82717L6.50551 9.9479C6.60736 10.0207 7.19348 10.4089 7.70271 10.0996C7.87345 9.99579 8.00026 9.91298 8.09711 9.84912C8.10401 9.8446 8.11093 9.84007 8.11782 9.83555C8.16879 9.80214 8.2187 9.76944 8.25388 9.74834C8.26886 9.75633 8.28583 9.7663 8.30081 9.77528Z" fill="white" stroke="white" stroke-width="0.266667"/>
</svg>
