<svg xmlns="http://www.w3.org/2000/svg" viewBox="0 0 32 32" class="design-iconfont">
  <g fill="#ADB6CC" fill-rule="nonzero">
    <path d="M23.7777778,7 L8.22222222,7 C6.45156462,7 5,8.39350203 5,10.1333333 L5,24 L5.00582505,24.1107054 C5.08271401,24.8337283 5.90514121,25.2479754 6.5390537,24.8422714 L9.625,22.866 L23.7777778,22.8666667 C25.5484354,22.8666667 27,21.4731646 27,19.7333333 L27,10.1333333 C27,8.39350203 25.5484354,7 23.7777778,7 Z M8.22222222,9 L23.7777778,9 C24.4617191,9 25,9.5167497 25,10.1333333 L25,19.7333333 C25,20.349917 24.4617191,20.8666667 23.7777778,20.8666667 L9.33333333,20.8666667 L9.21935255,20.8731831 C9.06849031,20.8904911 8.92302113,20.9420007 8.79427964,21.0243953 L7,22.172 L7,10.1333333 C7,9.5167497 7.53828094,9 8.22222222,9 Z"/>
    <path d="M19.5,13.5 C20.0522847,13.5 20.5,13.9477153 20.5,14.5 C20.5,15.0128358 20.1139598,15.4355072 19.6166211,15.4932723 L19.5,15.5 L12.5,15.5 C11.9477153,15.5 11.5,15.0522847 11.5,14.5 C11.5,13.9871642 11.8860402,13.5644928 12.3833789,13.5067277 L12.5,13.5 L19.5,13.5 Z"/>
  </g>
</svg>
