<svg t="1652933374821" class="icon" viewBox="0 0 1024 1024" version="1.1" xmlns="http://www.w3.org/2000/svg" p-id="2709" width="32" height="32"><path d="M878.272 981.312H375.36a104.64 104.64 0 0 1-104.64-104.64V375.36c0-57.792 46.848-104.64 104.64-104.64h502.912c57.792 0 104.64 46.848 104.64 104.64v502.912c-1.6 56.192-48.448 103.04-104.64 103.04z m-502.912-616.96a10.688 10.688 0 0 0-10.944 11.008v502.912c0 6.208 4.672 10.88 10.88 10.88h502.976c6.208 0 10.88-4.672 10.88-10.88V375.36a10.688 10.688 0 0 0-10.88-10.944H375.36z" fill="#ADB6CC" p-id="2710"></path><path d="M192.64 753.28h-45.312a104.64 104.64 0 0 1-104.64-104.64V147.328c0-57.792 46.848-104.64 104.64-104.64h502.912c57.792 0 104.64 46.848 104.64 104.64v49.92a46.016 46.016 0 0 1-46.848 46.912 46.08 46.08 0 0 1-46.848-46.848v-49.984a10.688 10.688 0 0 0-10.944-10.944H147.328a10.688 10.688 0 0 0-10.944 10.88v502.976c0 6.208 4.672 10.88 10.88 10.88h45.312a46.08 46.08 0 0 1 46.848 46.912c0 26.496-21.824 45.248-46.848 45.248z" fill="#ADB6CC" p-id="2711"></path></svg>
