<svg xmlns="http://www.w3.org/2000/svg" viewBox="0 0 32 32" class="design-iconfont">
  <g fill="#D2D7E6" fill-rule="evenodd">
    <path d="M9,0 C11.7614237,0 14,2.23857625 14,5 C14,7.76142375 11.7614237,10 9,10 C6.23857625,10 4,7.76142375 4,5 C4,2.23857625 6.23857625,0 9,0 Z" fill-rule="nonzero" transform="translate(4 7)"/>
    <path d="M13,11 C15.6887547,11 17.8818181,13.1223067 17.9953805,15.7831104 L18,16 L18,18 C18,18.5522847 17.5522847,19 17,19 C16.4871642,19 1.55228475,19 1,19 C0.487164161,19 0.0644928393,18.6139598 0.00672773133,18.1166211 L0,18 L0,16 C0,13.3112453 2.12230671,11.1181819 4.78311038,11.0046195 L5,11 L13,11 Z" fill-rule="nonzero" transform="translate(4 7)"/>
    <path d="M20,5 C20.4142136,5 20.75,5.33578644 20.75,5.75 L20.749,7.25 L22.25,7.25 C22.6642136,7.25 23,7.58578644 23,8 C23,8.41421356 22.6642136,8.75 22.25,8.75 L20.749,8.75 L20.75,10.25 C20.75,10.6642136 20.4142136,11 20,11 C19.5857864,11 19.25,10.6642136 19.25,10.25 L19.249,8.75 L17.75,8.75 C17.3357864,8.75 17,8.41421356 17,8 C17,7.58578644 17.3357864,7.25 17.75,7.25 L19.249,7.25 L19.25,5.75 C19.25,5.33578644 19.5857864,5 20,5 Z" transform="translate(4 7)"/>
  </g>
</svg>
