<?xml version="1.0" encoding="UTF-8"?>
<svg width="20px" height="20px" viewBox="0 0 20 20" version="1.1" xmlns="http://www.w3.org/2000/svg" xmlns:xlink="http://www.w3.org/1999/xlink">
    <title>邮箱icon</title>
    <g id="登录页+冷启动页" stroke="none" stroke-width="1" fill="none" fill-rule="evenodd">
        <g id="登录页" transform="translate(-1158.000000, -416.000000)" fill="#989EB3" fill-rule="nonzero">
            <g id="登录框" transform="translate(890.000000, 145.000000)">
                <g id="手机号" transform="translate(52.000000, 251.000000)">
                    <g id="邮箱icon" transform="translate(216.000000, 20.000000)">
                        <path d="M17,3 C18.1045695,3 19,3.8954305 19,5 L19,15 C19,16.1045695 18.1045695,17 17,17 L3,17 C1.8954305,17 1,16.1045695 1,15 L1,5 C1,3.8954305 1.8954305,3 3,3 L17,3 Z M17.8293887,4.4411467 L11.5844857,9.23701568 C10.6536901,9.95194301 9.34630993,9.95194301 8.41551426,9.23701568 L2.17061126,4.4411467 C2.08342143,4.57029053 2.0256,4.72089484 2.00672773,4.88337887 L2,5 L2,15 C2,15.5128358 2.38604019,15.9355072 2.88337887,15.9932723 L3,16 L17,16 C17.5128358,16 17.9355072,15.6139598 17.9932723,15.1166211 L18,15 L18,5 C18,4.79300403 17.9371074,4.60069742 17.8293887,4.4411467 Z M10.9753475,8.44395159 L16.761,4 L3.238,4 L9.02465247,8.44395159 C9.55539628,8.85160632 10.2896163,8.88072452 10.8494282,8.53130617 L10.9753475,8.44395159 Z" id="形状"></path>
                    </g>
                </g>
            </g>
        </g>
    </g>
</svg>