<svg xmlns="http://www.w3.org/2000/svg" viewBox="0 0 32 32" class="design-iconfont">
  <path d="M17.9273368,5 C18.7689511,5 19.5488201,5.61636248 19.7227526,6.43719493 L19.7227526,6.43719493 L19.9785935,7.63579419 C19.9887141,7.68332947 20.1207683,7.84823309 20.2345875,7.90442668 L20.2345875,7.90442668 L21.1280061,8.40365445 C21.1853694,8.44115156 21.4161523,8.47192013 21.4847133,8.44988823 L21.4847133,8.44988823 L22.6785895,8.06637236 C23.4743001,7.81101042 24.4024064,8.15351988 24.8290662,8.87060487 L24.8290662,8.87060487 L26.7563176,12.1059174 C27.1926024,12.8384456 27.0280568,13.8271855 26.3822189,14.3847486 L26.3822189,14.3847486 L25.4436028,15.194285 C25.4020946,15.2301303 25.3238005,15.416589 25.3296336,15.5359748 L25.3296336,15.5359748 L25.3248182,16.5373127 C25.3215801,16.5815695 25.3997797,16.767584 25.4413445,16.8034662 L25.4413445,16.8034662 L26.3825829,17.6156561 C27.0279657,18.1728265 27.1926847,19.1614811 26.7564938,19.8937382 L26.7564938,19.8937382 L24.8290709,23.1297501 C24.4021047,23.8465212 23.4747011,24.1884489 22.6788526,23.933652 L22.6788526,23.933652 L21.482612,23.549856 C21.413761,23.5277426 21.1824749,23.5584435 21.0671858,23.6309256 L21.0671858,23.6309256 L20.1776691,24.1264371 C20.1203816,24.1536404 19.9882999,24.3186018 19.9779335,24.3673895 L19.9779335,24.3673895 L19.7230613,25.5617164 C19.548804,26.3840764 18.7688861,27 17.9273368,27 L17.9273368,27 L14.0729132,27 C13.2319344,27 12.4523448,26.38453 12.2771329,25.5627748 L12.2771329,25.5627748 L12.022008,24.365173 C12.0117269,24.316964 11.87995,24.152528 11.7653509,24.096023 L11.7653509,24.096023 L10.8715331,23.5967626 C10.8141818,23.5592679 10.5833146,23.5284897 10.5146628,23.5505449 L10.5146628,23.5505449 L9.32053125,23.9338396 C8.52535768,24.1884202 7.59833097,23.8465867 7.17086355,23.1296916 L7.17086355,23.1296916 L5.24381825,19.8941562 C4.80718674,19.1618925 4.9720444,18.1731644 5.61767574,17.6154065 L5.61767574,17.6154065 L6.55643001,16.8055893 C6.59780196,16.7698856 6.67622935,16.5830871 6.67042977,16.4636415 L6.67042977,16.4636415 L6.67539705,15.4634363 C6.67864657,15.4187293 6.60033638,15.2322884 6.55901719,15.1966302 L6.55901719,15.1966302 L5.61727645,14.3842489 C4.97207871,13.8270747 4.80773992,12.8384997 5.24385657,12.1058876 L5.24385657,12.1058876 L7.17086353,8.87067129 C7.59803307,8.15344778 8.52601117,7.81098563 9.32158739,8.066439 L9.32158739,8.066439 L10.5174521,8.45050726 C10.5864168,8.47265724 10.8170892,8.44198854 10.9329609,8.36902746 L10.9329609,8.36902746 L11.8231778,7.87327967 C11.8801835,7.84625634 12.0121872,7.68149783 12.0224224,7.63344521 L12.0224224,7.63344521 L12.2771702,6.43741314 C12.4523287,5.61590845 13.2318693,5 14.0729132,5 L14.0729132,5 Z M16,13 C14.3431458,13 13,14.3431458 13,16 C13,17.6568542 14.3431458,19 16,19 C17.6568542,19 19,17.6568542 19,16 C19,14.3431458 17.6568542,13 16,13 Z" fill="#D2D7E6" fill-rule="nonzero"/>
</svg>
