<svg width="20" height="20" viewBox="0 0 20 20" fill="none" xmlns="http://www.w3.org/2000/svg">
<path d="M14.8115 2.3772H13.7637C13.4865 2.3772 13.2191 2.49712 13.0402 2.71138C12.5035 3.3522 10.9682 3.76704 10.001 3.76704C9.03379 3.76704 7.49844 3.3522 6.96172 2.71138C6.78086 2.49692 6.51543 2.3772 6.23828 2.3772H5.18848C4.93301 2.3772 4.68906 2.47935 4.5082 2.66431L1.02656 6.20493C0.802344 6.43286 0.802344 6.80063 1.02656 7.02856L3.14961 9.18911C3.37383 9.41724 3.73555 9.41724 3.95957 9.18911L4.03027 9.11841C4.10703 9.04165 4.23672 9.09478 4.23672 9.20493V16.7364C4.23672 17.2258 4.62598 17.6229 5.10762 17.6229H14.8918C15.3734 17.6229 15.7627 17.2258 15.7627 16.7364V9.20298C15.7627 9.09282 15.8924 9.03774 15.9691 9.11646L16.0398 9.18735C16.2641 9.41528 16.6258 9.41528 16.8498 9.18735L18.9729 7.02681C19.1971 6.79888 19.1971 6.4311 18.9729 6.20317L15.4918 2.66235C15.3109 2.47954 15.0652 2.3772 14.8115 2.3772V2.3772Z" fill="#AFB4C7"/>
</svg>
