<svg xmlns="http://www.w3.org/2000/svg" viewBox="0 0 20 20" class="design-iconfont">
  <g fill="none" fill-rule="evenodd">
    <path d="M2,0 L18,0 C19.1045695,-2.02906125e-16 20,0.8954305 20,2 L20,18 C20,19.1045695 19.1045695,20 18,20 L2,20 C0.8954305,20 1.3527075e-16,19.1045695 0,18 L0,2 C-1.3527075e-16,0.8954305 0.8954305,2.02906125e-16 2,0 Z" fill="#4D85FF"/>
    <path d="M10,4 C8.10645229,4 6.57142857,5.53502371 6.57142857,7.42857143 C6.57142857,9.32211914 8.10645229,10.8571429 10,10.8571429 C11.8935477,10.8571429 13.4285714,9.32211914 13.4285714,7.42857143 C13.4285714,5.53502371 11.8935477,4 10,4 Z M12.6666667,11.7142857 C14.4591698,11.7142857 15.9212121,13.0136572 15.9969203,14.6427206 L16,14.7755102 L16,15.1428571 C16,15.6162441 15.6162441,16 15.1428571,16 L4.85714286,16 C4.38375593,16 4,15.6162441 4,15.1428571 L4,14.7755102 L4,14.7755102 C4,13.1293339 5.41487114,11.786642 7.18874025,11.717114 L7.33333333,11.7142857 L12.6666667,11.7142857 Z" fill="#FFF" fill-rule="nonzero"/>
  </g>
</svg>
