<svg xmlns="http://www.w3.org/2000/svg" viewBox="0 0 20 21" class="design-iconfont">
  <g fill="none" fill-rule="evenodd">
    <path d="M9.56270922,1.93562612 C9.87990961,1.82609699 10.2246767,1.82609699 10.5418771,1.93562612 L10.5418771,1.93562612 L16.5418771,4.00742289 C16.8442231,4.11182279 17.0968271,4.30635451 17.2738446,4.55475203 C17.4508621,4.80314956 17.5522932,5.1054129 17.5522932,5.42527604 L17.5522932,5.42527604 L17.5522932,12.1074519 C17.5522932,13.589287 16.8227671,14.9761382 15.6016729,15.8156405 L15.6016729,15.8156405 L11.4686152,18.6571176 C11.0420502,18.9503811 10.5471717,19.0970128 10.0522932,19.0970128 C9.55741464,19.0970128 9.06253613,18.9503811 8.63597109,18.6571176 L8.63597109,18.6571176 L4.50291345,15.8156405 C3.28181919,14.9761382 2.55229315,13.589287 2.55229315,12.1074519 L2.55229315,12.1074519 L2.55229315,5.42527604 C2.55229315,5.1054129 2.65372418,4.80314956 2.8307417,4.55475203 C3.00775922,4.30635451 3.26036324,4.11182279 3.56270922,4.00742289 L3.56270922,4.00742289 Z" stroke="#989EB3"/>
    <path d="M12.830232,9.73570074 L10.5804754,12.4168563 C10.3526348,12.6883861 9.97334713,12.757866 9.66981663,12.6054184 L9.59421924,12.5617358 L9.59421924,12.5617358 L9.55936163,12.5383864 L9.55936163,12.5383864 L9.52385131,12.5092989 L9.52385131,12.5092989 C9.48712498,12.4805322 9.45489971,12.4486099 9.42524076,12.4132637 L7.17548413,9.73210817 C6.90923278,9.41480217 6.95062076,8.94173548 7.26792675,8.67548413 C7.58523275,8.40923278 8.05829945,8.45062076 8.32455079,8.76792675 L10.0044369,10.7693642 L11.6811653,8.77151932 C11.9474167,8.45421333 12.4204834,8.41282535 12.7377894,8.6790767 C13.0550954,8.94532804 13.0964833,9.41839474 12.830232,9.73570074 Z" fill="#989EB3"/>
  </g>
</svg>
